{"asset":{"version":"2.0","generator":"Blockbench 5.1.3 glTF exporter"},"scenes":[{"nodes":[40],"name":"blockbench_export"}],"scene":0,"nodes":[{"translation":[0.003125,0.0625,-0.575],"name":"pupil"},{"rotation":[0,0,-0.3826834323650898,0.9238795325112867],"name":"iris","children":[0]},{"rotation":[0,0,0.3826834323650898,0.9238795325112867],"translation":[0,0.625,0],"name":"eye","children":[1]},{"rotation":[-0.22507193279958282,0.07640162613942991,-0.312227675547241,0.9197930719523156],"translation":[0,0.71875,0],"name":"orbital"},{"rotation":[-0.1446939691146839,0.18856894120453904,0.25140180191846256,0.9382443944447459],"translation":[0,0.59375,0],"name":"orbital2"},{"translation":[-0.003125,-1.125,0],"name":"nothing"},{"translation":[0,-0.5625,0],"name":"current2","children":[5]},{"translation":[0.003125,0.125,0],"name":"current","children":[6]},{"rotation":[0,0,-0.7518398074789773,0.659345815100069],"translation":[-0.025276875000000032,-0.07924812500000011,0.0070724999999999955],"name":"rightfinger"},{"rotation":[0,0,0.25881904510252074,0.9659258262890683],"translation":[0.14477624999999994,-0.04786187499999994,0.0070724999999999955],"name":"rightfinger2"},{"translation":[0,-0.8624999999999999,-0.021874375],"name":"righthand","children":[8,9]},{"translation":[0.013553125,-0.8676431250000001,0.020168124999999995],"name":"rightforearm","children":[10]},{"translation":[0.4272075,0.263561875,0.069294375],"name":"rightarm","children":[11]},{"rotation":[0,0,0.7518398074789773,0.659345815100069],"translation":[0.025276875000000032,-0.07924812500000011,0.0070724999999999955],"name":"leftfinger"},{"rotation":[0,0,-0.25881904510252074,0.9659258262890683],"translation":[-0.14477624999999994,-0.04786187499999994,0.0070724999999999955],"name":"leftfinger2"},{"translation":[0,-0.8624999999999999,-0.021874375],"name":"lefthand","children":[13,14]},{"translation":[-0.013553125,-0.8676431250000001,0.020168124999999995],"name":"leftforearm","children":[15]},{"translation":[-0.4272075,0.263561875,0.069294375],"name":"leftarm","children":[16]},{"rotation":[0.2798290140309921,0,0,0.9600498543859287],"translation":[0,0.1875,0],"name":"crystalpiece2"},{"rotation":[-0.2798290140309921,0,0,0.9600498543859287],"translation":[0,-0.1875,0],"name":"crystalpiece"},{"translation":[0,0.043749999999999956,0],"name":"crystal","children":[18,19]},{"translation":[1.4375,0.1875,-0.5625],"name":"orb","children":[20]},{"rotation":[0.2798290140309921,0,0,0.9600498543859287],"translation":[0,0.1875,0],"name":"crystalpiece7"},{"rotation":[-0.2798290140309921,0,0,0.9600498543859287],"translation":[0,-0.1875,0],"name":"crystalpiece8"},{"translation":[0,0.043749999999999956,0],"name":"crystal4","children":[22,23]},{"translation":[-1.25,0.5625,-0.5625],"name":"orb4","children":[24]},{"rotation":[0.2798290140309921,0,0,0.9600498543859287],"translation":[0,0.1875,0],"name":"crystalpiece3"},{"rotation":[-0.2798290140309921,0,0,0.9600498543859287],"translation":[0,-0.1875,0],"name":"crystalpiece4"},{"translation":[0,0.043749999999999956,0],"name":"crystal2","children":[26,27]},{"translation":[1.0625,0.625,1.1875],"name":"orb2","children":[28]},{"rotation":[0.2798290140309921,0,0,0.9600498543859287],"translation":[0,0.1875,0],"name":"crystalpiece5"},{"rotation":[-0.2798290140309921,0,0,0.9600498543859287],"translation":[0,-0.1875,0],"name":"crystalpiece6"},{"translation":[0,0.043749999999999956,0],"name":"crystal3","children":[30,31]},{"translation":[-1.375,0.1875,1.1875],"name":"orb3","children":[32]},{"rotation":[0.2798290140309921,0,0,0.9600498543859287],"translation":[0,0.1875,0],"name":"crystalpiece9"},{"rotation":[-0.2798290140309921,0,0,0.9600498543859287],"translation":[0,-0.1875,0],"name":"crystalpiece10"},{"translation":[0,0.04375000000000018,0],"name":"crystal5","children":[34,35]},{"translation":[-0.0625,1.1875,-0.0625],"name":"orb5","children":[36]},{"translation":[0,1.125,0],"name":"orbs","children":[21,25,29,33,37]},{"name":"root","children":[2,3,4,7,12,17,38]},{"name":"root","mesh":0,"children":[39],"skin":0}],"bufferViews":[{"buffer":0,"byteOffset":0,"byteLength":46080,"target":34962,"byteStride":12},{"buffer":0,"byteOffset":46080,"byteLength":46080,"target":34962,"byteStride":12},{"buffer":0,"byteOffset":92160,"byteLength":30720,"target":34962,"byteStride":8},{"buffer":0,"byteOffset":122880,"byteLength":30720,"target":34962,"byteStride":8},{"buffer":0,"byteOffset":153600,"byteLength":61440,"target":34962,"byteStride":16},{"buffer":0,"byteOffset":215040,"byteLength":11520,"target":34963},{"buffer":0,"byteOffset":226560,"byteLength":2560},{"buffer":0,"byteOffset":229120,"byteLength":5632},{"buffer":0,"byteOffset":234752,"byteLength":22528},{"buffer":0,"byteOffset":257280,"byteLength":5632},{"buffer":0,"byteOffset":262912,"byteLength":22528},{"buffer":0,"byteOffset":285440,"byteLength":5632},{"buffer":0,"byteOffset":291072,"byteLength":22528},{"buffer":0,"byteOffset":313600,"byteLength":5632},{"buffer":0,"byteOffset":319232,"byteLength":22528},{"buffer":0,"byteOffset":341760,"byteLength":5632},{"buffer":0,"byteOffset":347392,"byteLength":22528},{"buffer":0,"byteOffset":369920,"byteLength":5632},{"buffer":0,"byteOffset":375552,"byteLength":22528},{"buffer":0,"byteOffset":398080,"byteLength":5632},{"buffer":0,"byteOffset":403712,"byteLength":22528},{"buffer":0,"byteOffset":426240,"byteLength":5632},{"buffer":0,"byteOffset":431872,"byteLength":22528},{"buffer":0,"byteOffset":454400,"byteLength":5632},{"buffer":0,"byteOffset":460032,"byteLength":22528},{"buffer":0,"byteOffset":482560,"byteLength":5632},{"buffer":0,"byteOffset":488192,"byteLength":22528},{"buffer":0,"byteOffset":510720,"byteLength":5632},{"buffer":0,"byteOffset":516352,"byteLength":22528},{"buffer":0,"byteOffset":538880,"byteLength":5632},{"buffer":0,"byteOffset":544512,"byteLength":22528},{"buffer":0,"byteOffset":567040,"byteLength":5632},{"buffer":0,"byteOffset":572672,"byteLength":22528},{"buffer":0,"byteOffset":595200,"byteLength":5632},{"buffer":0,"byteOffset":600832,"byteLength":22528},{"buffer":0,"byteOffset":623360,"byteLength":5632},{"buffer":0,"byteOffset":628992,"byteLength":16896},{"buffer":0,"byteOffset":645888,"byteLength":4},{"buffer":0,"byteOffset":645892,"byteLength":16},{"buffer":0,"byteOffset":645908,"byteLength":5632},{"buffer":0,"byteOffset":651540,"byteLength":16896},{"buffer":0,"byteOffset":668436,"byteLength":5632},{"buffer":0,"byteOffset":674068,"byteLength":22528},{"buffer":0,"byteOffset":696596,"byteLength":5632},{"buffer":0,"byteOffset":702228,"byteLength":22528},{"buffer":0,"byteOffset":724756,"byteLength":5632},{"buffer":0,"byteOffset":730388,"byteLength":22528},{"buffer":0,"byteOffset":752916,"byteLength":5632},{"buffer":0,"byteOffset":758548,"byteLength":22528},{"buffer":0,"byteOffset":781076,"byteLength":4},{"buffer":0,"byteOffset":781080,"byteLength":16},{"buffer":0,"byteOffset":781096,"byteLength":5632},{"buffer":0,"byteOffset":786728,"byteLength":22528},{"buffer":0,"byteOffset":809256,"byteLength":5632},{"buffer":0,"byteOffset":814888,"byteLength":22528},{"buffer":0,"byteOffset":837416,"byteLength":5632},{"buffer":0,"byteOffset":843048,"byteLength":22528}],"buffers":[{"byteLength":865576,"uri":"data:application/octet-stream;base64,"}],"accessors":[{"bufferView":0,"componentType":5126,"count":3840,"max":[1.8090405464172363,2.7085764408111572,1.926533579826355],"min":[-1.8573009967803955,-2.1875,-1.8852647542953491],"type":"VEC3"},{"bufferView":1,"componentType":5126,"count":3840,"max":[1,1,1],"min":[-1,-1,-1],"type":"VEC3"},{"bufferView":2,"componentType":5126,"count":3840,"max":[0.8592529296875,0.7264404296875],"min":[0.0001220703125,0.00012209266424179077],"type":"VEC2"},{"bufferView":3,"componentType":5123,"count":3840,"max":[0,39,0,0],"min":[0,1,0,0],"type":"VEC4"},{"bufferView":4,"componentType":5126,"count":3840,"max":[0,1,0,0],"min":[0,1,0,0],"type":"VEC4"},{"bufferView":5,"componentType":5123,"count":5760,"max":[3839],"min":[0],"type":"SCALAR"},{"bufferView":6,"componentType":5126,"count":40,"max":[1,0.9914448857307434,0.28109484910964966,0,0.9914448857307434,1,0.537299633026123,0,2.7755575615628914e-17,0.537299633026123,1,0,1.4783730506896973,1.6043146848678589,1.5053513050079346,1],"min":[-0.13052618503570557,-0.9914448857307434,0,0,-0.9914448857307434,-0.13052618503570557,-0.537299633026123,0,-0.4266001582145691,-0.537299633026123,0.8433914184570312,0,-1.4783730506896973,-2.356250047683716,-1.8645648956298828,1],"type":"MAT4"},{"bufferView":7,"componentType":5126,"count":1408,"max":[80.125],"min":[0],"type":"SCALAR"},{"bufferView":8,"componentType":5126,"count":1408,"max":[0.1593487560749054,0.01788042113184929,0.4858090281486511,0.9524936079978943],"min":[-0.10350870341062546,-0.13413569331169128,0.2860793173313141,0.8565901517868042],"type":"VEC4"},{"bufferView":9,"componentType":5126,"count":1408,"max":[80.125],"min":[0],"type":"SCALAR"},{"bufferView":10,"componentType":5126,"count":1408,"max":[0.3848936855792999,0.9229606986045837,0.38489407300949097,0.9229606986045837],"min":[-0.38489407300949097,-0.9229520559310913,-0.3848936855792999,-0.9229518175125122],"type":"VEC4"},{"bufferView":11,"componentType":5126,"count":1408,"max":[80.125],"min":[0],"type":"SCALAR"},{"bufferView":12,"componentType":5126,"count":1408,"max":[0,0,0.10452846437692642,1],"min":[0,0,-0.10452846437692642,0.9945219159126282],"type":"VEC4"},{"bufferView":13,"componentType":5126,"count":1408,"max":[80.125],"min":[0],"type":"SCALAR"},{"bufferView":14,"componentType":5126,"count":1408,"max":[0,0,0.10452835261821747,1],"min":[0,0,-0.10452835261821747,0.9945219159126282],"type":"VEC4"},{"bufferView":15,"componentType":5126,"count":1408,"max":[80.125],"min":[0],"type":"SCALAR"},{"bufferView":16,"componentType":5126,"count":1408,"max":[0,1,0,1],"min":[0,-0.999997615814209,0,-1],"type":"VEC4"},{"bufferView":17,"componentType":5126,"count":1408,"max":[80.125],"min":[0],"type":"SCALAR"},{"bufferView":18,"componentType":5126,"count":1408,"max":[0,0.999997615814209,0,1],"min":[0,-1,0,-1],"type":"VEC4"},{"bufferView":19,"componentType":5126,"count":1408,"max":[80.125],"min":[0],"type":"SCALAR"},{"bufferView":20,"componentType":5126,"count":1408,"max":[0,1,0,1],"min":[0,-0.999997615814209,0,-1],"type":"VEC4"},{"bufferView":21,"componentType":5126,"count":1408,"max":[80.125],"min":[0],"type":"SCALAR"},{"bufferView":22,"componentType":5126,"count":1408,"max":[0,0.999997615814209,0,1],"min":[0,-1,0,-1],"type":"VEC4"},{"bufferView":23,"componentType":5126,"count":1408,"max":[80.125],"min":[0],"type":"SCALAR"},{"bufferView":24,"componentType":5126,"count":1408,"max":[0,0.999997615814209,0,1],"min":[0,-1,0,-1],"type":"VEC4"},{"bufferView":25,"componentType":5126,"count":1408,"max":[80.125],"min":[0],"type":"SCALAR"},{"bufferView":26,"componentType":5126,"count":1408,"max":[0,0,0.4771587550640106,0.9588197469711304],"min":[0,0,0.28401535749435425,0.8788171410560608],"type":"VEC4"},{"bufferView":27,"componentType":5126,"count":1408,"max":[80.125],"min":[0],"type":"SCALAR"},{"bufferView":28,"componentType":5126,"count":1408,"max":[0,0,-0.06975647062063217,0.9975640773773193],"min":[0,0,-0.27563735842704773,0.9612616896629333],"type":"VEC4"},{"bufferView":29,"componentType":5126,"count":1408,"max":[80.125],"min":[0],"type":"SCALAR"},{"bufferView":30,"componentType":5126,"count":1408,"max":[0,0,-0.6788007616996765,0.7343224883079529],"min":[0,0,-0.8166415691375732,0.5771452188491821],"type":"VEC4"},{"bufferView":31,"componentType":5126,"count":1408,"max":[80.125],"min":[0],"type":"SCALAR"},{"bufferView":32,"componentType":5126,"count":1408,"max":[0,0,0.3583679497241974,0.9876883625984192],"min":[0,0,0.15643446147441864,0.9335803985595703],"type":"VEC4"},{"bufferView":33,"componentType":5126,"count":1408,"max":[80.125],"min":[0],"type":"SCALAR"},{"bufferView":34,"componentType":5126,"count":1408,"max":[0,1,0,1],"min":[0,-0.999997615814209,0,-1],"type":"VEC4"},{"bufferView":35,"componentType":5126,"count":1408,"max":[80.125],"min":[0],"type":"SCALAR"},{"bufferView":36,"componentType":5126,"count":1408,"max":[0,1.25,0],"min":[0,1,0],"type":"VEC3"},{"bufferView":37,"componentType":5126,"count":1,"max":[0],"min":[0],"type":"SCALAR"},{"bufferView":38,"componentType":5126,"count":1,"max":[0,0,-0.1736481785774231,0.9848077297210693],"min":[0,0,-0.1736481785774231,0.9848077297210693],"type":"VEC4"},{"bufferView":39,"componentType":5126,"count":1408,"max":[80.125],"min":[0],"type":"SCALAR"},{"bufferView":40,"componentType":5126,"count":1408,"max":[0.31562501192092896,0.0625,-0.574999988079071],"min":[-0.30937498807907104,-0.0625,-0.574999988079071],"type":"VEC3"},{"bufferView":41,"componentType":5126,"count":1408,"max":[80.125],"min":[0],"type":"SCALAR"},{"bufferView":42,"componentType":5126,"count":1408,"max":[0,0,0.10452846437692642,1],"min":[0,0,-0.10452846437692642,0.9945219159126282],"type":"VEC4"},{"bufferView":43,"componentType":5126,"count":1408,"max":[80.125],"min":[0],"type":"SCALAR"},{"bufferView":44,"componentType":5126,"count":1408,"max":[0.11109570413827896,0.10917749255895615,0.11109570413827896,0.9975960850715637],"min":[-0.09700383245944977,-0.09999939799308777,-0.09700383245944977,0.9851898550987244],"type":"VEC4"},{"bufferView":45,"componentType":5126,"count":1408,"max":[80.125],"min":[0],"type":"SCALAR"},{"bufferView":46,"componentType":5126,"count":1408,"max":[0,0,-0.28401535749435425,0.9588197469711304],"min":[0,0,-0.4771587550640106,0.8788171410560608],"type":"VEC4"},{"bufferView":47,"componentType":5126,"count":1408,"max":[80.125],"min":[0],"type":"SCALAR"},{"bufferView":48,"componentType":5126,"count":1408,"max":[0,0,0.25460195541381836,0.9988483786582947],"min":[0,0,0.047978129237890244,0.9670459628105164],"type":"VEC4"},{"bufferView":49,"componentType":5126,"count":1,"max":[0],"min":[0],"type":"SCALAR"},{"bufferView":50,"componentType":5126,"count":1,"max":[0,0,0.10886687785387039,0.9940563440322876],"min":[0,0,0.10886687785387039,0.9940563440322876],"type":"VEC4"},{"bufferView":51,"componentType":5126,"count":1408,"max":[80.125],"min":[0],"type":"SCALAR"},{"bufferView":52,"componentType":5126,"count":1408,"max":[0,0,0.8166415691375732,0.7343224883079529],"min":[0,0,0.6788007616996765,0.5771452188491821],"type":"VEC4"},{"bufferView":53,"componentType":5126,"count":1408,"max":[80.125],"min":[0],"type":"SCALAR"},{"bufferView":54,"componentType":5126,"count":1408,"max":[0,0,-0.15643446147441864,0.9876883625984192],"min":[0,0,-0.3583679497241974,0.9335803985595703],"type":"VEC4"},{"bufferView":55,"componentType":5126,"count":1408,"max":[80.125],"min":[0],"type":"SCALAR"},{"bufferView":56,"componentType":5126,"count":1408,"max":[0.2547881603240967,0.9669944047927856,0.25478777289390564,0.9669948220252991],"min":[-0.25478777289390564,-0.9669969081878662,-0.2547873258590698,-0.9669969081878662],"type":"VEC4"}],"materials":[{"pbrMetallicRoughness":{"metallicFactor":0,"roughnessFactor":1,"baseColorTexture":{"index":0}},"alphaMode":"MASK","alphaCutoff":0.05,"doubleSided":true}],"textures":[{"sampler":0,"source":0,"name":"boss.png"}],"samplers":[{"magFilter":9728,"minFilter":9728,"wrapS":33071,"wrapT":33071}],"images":[{"mimeType":"image/png","uri":"data:image/png;base64,"}],"meshes":[{"primitives":[{"mode":4,"attributes":{"POSITION":0,"NORMAL":1,"TEXCOORD_0":2,"JOINTS_0":3,"WEIGHTS_0":4},"indices":5,"material":0}]}],"skins":[{"inverseBindMatrices":6,"joints":[39,2,1,0,3,4,7,6,5,12,11,10,8,9,17,16,15,13,14,38,21,20,18,19,25,24,22,23,29,28,26,27,33,32,30,31,37,36,34,35],"skeleton":39}],"animations":[{"name":"animation.boss.new2","samplers":[{"input":7,"output":8,"interpolation":"LINEAR"},{"input":9,"output":10,"interpolation":"LINEAR"},{"input":11,"output":12,"interpolation":"LINEAR"},{"input":13,"output":14,"interpolation":"LINEAR"},{"input":15,"output":16,"interpolation":"LINEAR"},{"input":17,"output":18,"interpolation":"LINEAR"},{"input":19,"output":20,"interpolation":"LINEAR"},{"input":21,"output":22,"interpolation":"LINEAR"},{"input":23,"output":24,"interpolation":"LINEAR"},{"input":25,"output":26,"interpolation":"LINEAR"},{"input":27,"output":28,"interpolation":"LINEAR"},{"input":29,"output":30,"interpolation":"LINEAR"},{"input":31,"output":32,"interpolation":"LINEAR"},{"input":33,"output":34,"interpolation":"LINEAR"},{"input":35,"output":36,"interpolation":"LINEAR"},{"input":37,"output":38,"interpolation":"LINEAR"},{"input":39,"output":40,"interpolation":"LINEAR"},{"input":41,"output":42,"interpolation":"LINEAR"},{"input":43,"output":44,"interpolation":"LINEAR"},{"input":45,"output":46,"interpolation":"LINEAR"},{"input":47,"output":48,"interpolation":"LINEAR"},{"input":49,"output":50,"interpolation":"LINEAR"},{"input":51,"output":52,"interpolation":"LINEAR"},{"input":53,"output":54,"interpolation":"LINEAR"},{"input":55,"output":56,"interpolation":"LINEAR"}],"channels":[{"sampler":0,"target":{"node":2,"path":"rotation"}},{"sampler":1,"target":{"node":3,"path":"rotation"}},{"sampler":2,"target":{"node":7,"path":"rotation"}},{"sampler":3,"target":{"node":6,"path":"rotation"}},{"sampler":4,"target":{"node":21,"path":"rotation"}},{"sampler":5,"target":{"node":29,"path":"rotation"}},{"sampler":6,"target":{"node":33,"path":"rotation"}},{"sampler":7,"target":{"node":25,"path":"rotation"}},{"sampler":8,"target":{"node":37,"path":"rotation"}},{"sampler":9,"target":{"node":12,"path":"rotation"}},{"sampler":10,"target":{"node":11,"path":"rotation"}},{"sampler":11,"target":{"node":8,"path":"rotation"}},{"sampler":12,"target":{"node":9,"path":"rotation"}},{"sampler":13,"target":{"node":38,"path":"rotation"}},{"sampler":14,"target":{"node":38,"path":"translation"}},{"sampler":15,"target":{"node":10,"path":"rotation"}},{"sampler":16,"target":{"node":0,"path":"translation"}},{"sampler":17,"target":{"node":5,"path":"rotation"}},{"sampler":18,"target":{"node":39,"path":"rotation"}},{"sampler":19,"target":{"node":17,"path":"rotation"}},{"sampler":20,"target":{"node":16,"path":"rotation"}},{"sampler":21,"target":{"node":15,"path":"rotation"}},{"sampler":22,"target":{"node":13,"path":"rotation"}},{"sampler":23,"target":{"node":14,"path":"rotation"}},{"sampler":24,"target":{"node":4,"path":"rotation"}}]}]}