{"asset":{"version":"2.0","generator":"Blockbench 5.1.3 glTF exporter"},"scenes":[{"nodes":[30],"name":"blockbench_export"}],"scene":0,"nodes":[{"translation":[0.0625,-0.2875,-0.0375],"name":"righthand"},{"translation":[-0.07500000000000001,-0.275,0],"name":"elbow_right","children":[0]},{"rotation":[0,0,0.3420201433256687,0.9396926207859084],"translation":[0.23125,0.05625000000000002,0],"name":"rightarm","children":[1]},{"translation":[0,-0.2875,-0.0375],"name":"lefthand"},{"translation":[0.012500000000000011,-0.275,0],"name":"elbow_left","children":[3]},{"rotation":[0,0,-0.3826834323650898,0.9238795325112867],"translation":[-0.23125,0.05625000000000002,0],"name":"left arm","children":[4]},{"translation":[0,0.25,0],"name":"arms","children":[2,5]},{"rotation":[-0.043619387365336,0,0,0.9990482215818578],"translation":[0,-0.25,-0.25],"name":"jaw"},{"name":"head_angle","children":[7]},{"name":"head_ai","children":[8]},{"translation":[0,0.375,0],"name":"head_correction","children":[9]},{"translation":[0,-0.03125,-0.03125],"name":"head","children":[10]},{"translation":[0,0.3125,0],"name":"neck","children":[11]},{"translation":[0,0.25,0],"name":"torso2","children":[6,12]},{"translation":[0,0,0.1875],"name":"fire"},{"translation":[0,0,0.25],"name":"tail5","children":[14]},{"translation":[0,0,0.25],"name":"tail4","children":[15]},{"translation":[0,0,0.25],"name":"tail3","children":[16]},{"translation":[0,0,0.3125],"name":"tail2","children":[17]},{"translation":[0,0,0.25],"name":"tail","children":[18]},{"translation":[0,-0.0625,0],"name":"body","children":[13,19]},{"translation":[0.03749999999999998,-0.125,0],"name":"rightfoot"},{"translation":[0,-0.1875,-0.0625],"name":"rightcalf","children":[21]},{"rotation":[0,-0.08715574274765817,0,0.9961946980917455],"translation":[0.3125,0.0625,0],"name":"rightleg","children":[22]},{"translation":[-0.03749999999999998,-0.125,0],"name":"leftfoot"},{"translation":[0,-0.1875,-0.0625],"name":"leftcalf","children":[24]},{"rotation":[0,0.08715574274765817,0,0.9961946980917455],"translation":[-0.3125,0.0625,0],"name":"leftleg","children":[25]},{"translation":[0,-0.125,0],"name":"legs","children":[23,26]},{"translation":[0,0.4375,0],"name":"waist","children":[20,27]},{"name":"root","children":[28]},{"name":"root","mesh":0,"children":[29],"skin":0}],"bufferViews":[{"buffer":0,"byteOffset":0,"byteLength":15264,"target":34962,"byteStride":12},{"buffer":0,"byteOffset":15264,"byteLength":15264,"target":34962,"byteStride":12},{"buffer":0,"byteOffset":30528,"byteLength":10176,"target":34962,"byteStride":8},{"buffer":0,"byteOffset":40704,"byteLength":10176,"target":34962,"byteStride":8},{"buffer":0,"byteOffset":50880,"byteLength":20352,"target":34962,"byteStride":16},{"buffer":0,"byteOffset":71232,"byteLength":3816,"target":34963},{"buffer":0,"byteOffset":75048,"byteLength":1920},{"buffer":0,"byteOffset":76968,"byteLength":4},{"buffer":0,"byteOffset":76972,"byteLength":16},{"buffer":0,"byteOffset":76988,"byteLength":4},{"buffer":0,"byteOffset":76992,"byteLength":12},{"buffer":0,"byteOffset":77004,"byteLength":4},{"buffer":0,"byteOffset":77008,"byteLength":16},{"buffer":0,"byteOffset":77024,"byteLength":4},{"buffer":0,"byteOffset":77028,"byteLength":16},{"buffer":0,"byteOffset":77044,"byteLength":4},{"buffer":0,"byteOffset":77048,"byteLength":12},{"buffer":0,"byteOffset":77060,"byteLength":4},{"buffer":0,"byteOffset":77064,"byteLength":16},{"buffer":0,"byteOffset":77080,"byteLength":4},{"buffer":0,"byteOffset":77084,"byteLength":12},{"buffer":0,"byteOffset":77096,"byteLength":4},{"buffer":0,"byteOffset":77100,"byteLength":16},{"buffer":0,"byteOffset":77116,"byteLength":4},{"buffer":0,"byteOffset":77120,"byteLength":12},{"buffer":0,"byteOffset":77132,"byteLength":4},{"buffer":0,"byteOffset":77136,"byteLength":16},{"buffer":0,"byteOffset":77152,"byteLength":4},{"buffer":0,"byteOffset":77156,"byteLength":16},{"buffer":0,"byteOffset":77172,"byteLength":4},{"buffer":0,"byteOffset":77176,"byteLength":12},{"buffer":0,"byteOffset":77188,"byteLength":4},{"buffer":0,"byteOffset":77192,"byteLength":12},{"buffer":0,"byteOffset":77204,"byteLength":4},{"buffer":0,"byteOffset":77208,"byteLength":16},{"buffer":0,"byteOffset":77224,"byteLength":4},{"buffer":0,"byteOffset":77228,"byteLength":12},{"buffer":0,"byteOffset":77240,"byteLength":4},{"buffer":0,"byteOffset":77244,"byteLength":12},{"buffer":0,"byteOffset":77256,"byteLength":4},{"buffer":0,"byteOffset":77260,"byteLength":16},{"buffer":0,"byteOffset":77276,"byteLength":4},{"buffer":0,"byteOffset":77280,"byteLength":16},{"buffer":0,"byteOffset":77296,"byteLength":4},{"buffer":0,"byteOffset":77300,"byteLength":16},{"buffer":0,"byteOffset":77316,"byteLength":4},{"buffer":0,"byteOffset":77320,"byteLength":16},{"buffer":0,"byteOffset":77336,"byteLength":4},{"buffer":0,"byteOffset":77340,"byteLength":16},{"buffer":0,"byteOffset":77356,"byteLength":4},{"buffer":0,"byteOffset":77360,"byteLength":16}],"buffers":[{"byteLength":77376,"uri":"data:application/octet-stream;base64,"}],"accessors":[{"bufferView":0,"componentType":5126,"count":1272,"max":[0.7706384062767029,1.5950000286102295,1.75],"min":[-0.825282096862793,0,-0.4312500059604645],"type":"VEC3"},{"bufferView":1,"componentType":5126,"count":1272,"max":[1,1,1],"min":[-1,-1,-1],"type":"VEC3"},{"bufferView":2,"componentType":5126,"count":1272,"max":[0.6170654296875,0.5311279296875],"min":[-0.0001220703125,0.00012207776308059692],"type":"VEC2"},{"bufferView":3,"componentType":5123,"count":1272,"max":[0,29,0,0],"min":[0,2,0,0],"type":"VEC4"},{"bufferView":4,"componentType":5126,"count":1272,"max":[0,1,0,0],"min":[0,1,0,0],"type":"VEC4"},{"bufferView":5,"componentType":5123,"count":1908,"max":[1271],"min":[0],"type":"SCALAR"},{"bufferView":6,"componentType":5126,"count":30,"max":[1,0.7071067690849304,0.1736481785774231,0,0.6427876353263855,1,0.08715574443340302,0,0.1736481785774231,0,1,0,0.8220116496086121,0.06752525269985199,0.19030040502548218,1],"min":[0.7071067690849304,-0.6427876353263855,-0.1736481785774231,0,-0.7071067690849304,0.7071067690849304,0,0,-0.1736481785774231,-0.08715574443340302,0.9848077297210693,0,-0.7757437229156494,-1.28125,-1.5,1],"type":"MAT4"},{"bufferView":7,"componentType":5126,"count":1,"max":[0],"min":[0],"type":"SCALAR"},{"bufferView":8,"componentType":5126,"count":1,"max":[0,0,-0.008726535364985466,0.9999619126319885],"min":[0,0,-0.008726535364985466,0.9999619126319885],"type":"VEC4"},{"bufferView":9,"componentType":5126,"count":1,"max":[0],"min":[0],"type":"SCALAR"},{"bufferView":10,"componentType":5126,"count":1,"max":[0,0.4375,0],"min":[0,0.4375,0],"type":"VEC3"},{"bufferView":11,"componentType":5126,"count":1,"max":[0],"min":[0],"type":"SCALAR"},{"bufferView":12,"componentType":5126,"count":1,"max":[-0.056796036660671234,-0.005110234022140503,-0.01883060112595558,0.9981951117515564],"min":[-0.056796036660671234,-0.005110234022140503,-0.01883060112595558,0.9981951117515564],"type":"VEC4"},{"bufferView":13,"componentType":5126,"count":1,"max":[0],"min":[0],"type":"SCALAR"},{"bufferView":14,"componentType":5126,"count":1,"max":[0.03124786913394928,-0.12853144109249115,0.3858706057071686,0.9130208492279053],"min":[0.03124786913394928,-0.12853144109249115,0.3858706057071686,0.9130208492279053],"type":"VEC4"},{"bufferView":15,"componentType":5126,"count":1,"max":[0],"min":[0],"type":"SCALAR"},{"bufferView":16,"componentType":5126,"count":1,"max":[0.23125000298023224,0.0031250000465661287,0],"min":[0.23125000298023224,0.0031250000465661287,0],"type":"VEC3"},{"bufferView":17,"componentType":5126,"count":1,"max":[0],"min":[0],"type":"SCALAR"},{"bufferView":18,"componentType":5126,"count":1,"max":[-0.06126730889081955,0.23759108781814575,-0.04545711353421211,0.9683648347854614],"min":[-0.06126730889081955,0.23759108781814575,-0.04545711353421211,0.9683648347854614],"type":"VEC4"},{"bufferView":19,"componentType":5126,"count":1,"max":[0],"min":[0],"type":"SCALAR"},{"bufferView":20,"componentType":5126,"count":1,"max":[-0.34062498807907104,0.0625,-0.015625],"min":[-0.34062498807907104,0.0625,-0.015625],"type":"VEC3"},{"bufferView":21,"componentType":5126,"count":1,"max":[0],"min":[0],"type":"SCALAR"},{"bufferView":22,"componentType":5126,"count":1,"max":[-0.005889087449759245,-0.11325579881668091,0.02744976617395878,0.9931691288948059],"min":[-0.005889087449759245,-0.11325579881668091,0.02744976617395878,0.9931691288948059],"type":"VEC4"},{"bufferView":23,"componentType":5126,"count":1,"max":[0],"min":[0],"type":"SCALAR"},{"bufferView":24,"componentType":5126,"count":1,"max":[0.3375000059604645,0.0625,-0.04062499850988388],"min":[0.3375000059604645,0.0625,-0.04062499850988388],"type":"VEC3"},{"bufferView":25,"componentType":5126,"count":1,"max":[0],"min":[0],"type":"SCALAR"},{"bufferView":26,"componentType":5126,"count":1,"max":[0,0,0,1],"min":[0,0,0,1],"type":"VEC4"},{"bufferView":27,"componentType":5126,"count":1,"max":[0],"min":[0],"type":"SCALAR"},{"bufferView":28,"componentType":5126,"count":1,"max":[0.5,0,0,0.8660253882408142],"min":[0.5,0,0,0.8660253882408142],"type":"VEC4"},{"bufferView":29,"componentType":5126,"count":1,"max":[0],"min":[0],"type":"SCALAR"},{"bufferView":30,"componentType":5126,"count":1,"max":[-0.07500000298023224,-0.3375000059604645,0.05000000074505806],"min":[-0.07500000298023224,-0.3375000059604645,0.05000000074505806],"type":"VEC3"},{"bufferView":31,"componentType":5126,"count":1,"max":[0],"min":[0],"type":"SCALAR"},{"bufferView":32,"componentType":5126,"count":1,"max":[1.0149999856948853,1,1],"min":[1.0149999856948853,1,1],"type":"VEC3"},{"bufferView":33,"componentType":5126,"count":1,"max":[0],"min":[0],"type":"SCALAR"},{"bufferView":34,"componentType":5126,"count":1,"max":[0.5,0,0,0.8660253882408142],"min":[0.5,0,0,0.8660253882408142],"type":"VEC4"},{"bufferView":35,"componentType":5126,"count":1,"max":[0],"min":[0],"type":"SCALAR"},{"bufferView":36,"componentType":5126,"count":1,"max":[0.012500000186264515,-0.3375000059604645,0.05000000074505806],"min":[0.012500000186264515,-0.3375000059604645,0.05000000074505806],"type":"VEC3"},{"bufferView":37,"componentType":5126,"count":1,"max":[0],"min":[0],"type":"SCALAR"},{"bufferView":38,"componentType":5126,"count":1,"max":[1.0149999856948853,1,1],"min":[1.0149999856948853,1,1],"type":"VEC3"},{"bufferView":39,"componentType":5126,"count":1,"max":[0],"min":[0],"type":"SCALAR"},{"bufferView":40,"componentType":5126,"count":1,"max":[-0.04361938685178757,0,0,0.9990482330322266],"min":[-0.04361938685178757,0,0,0.9990482330322266],"type":"VEC4"},{"bufferView":41,"componentType":5126,"count":1,"max":[0],"min":[0],"type":"SCALAR"},{"bufferView":42,"componentType":5126,"count":1,"max":[-0.19212646782398224,-0.1703115701675415,-0.03387707844376564,0.9658849239349365],"min":[-0.19212646782398224,-0.1703115701675415,-0.03387707844376564,0.9658849239349365],"type":"VEC4"},{"bufferView":43,"componentType":5126,"count":1,"max":[0],"min":[0],"type":"SCALAR"},{"bufferView":44,"componentType":5126,"count":1,"max":[-0.19509032368659973,0,0,0.9807852506637573],"min":[-0.19509032368659973,0,0,0.9807852506637573],"type":"VEC4"},{"bufferView":45,"componentType":5126,"count":1,"max":[0],"min":[0],"type":"SCALAR"},{"bufferView":46,"componentType":5126,"count":1,"max":[-0.19509032368659973,0,0,0.9807852506637573],"min":[-0.19509032368659973,0,0,0.9807852506637573],"type":"VEC4"},{"bufferView":47,"componentType":5126,"count":1,"max":[0],"min":[0],"type":"SCALAR"},{"bufferView":48,"componentType":5126,"count":1,"max":[0,0,0,1],"min":[0,0,0,1],"type":"VEC4"},{"bufferView":49,"componentType":5126,"count":1,"max":[0],"min":[0],"type":"SCALAR"},{"bufferView":50,"componentType":5126,"count":1,"max":[0.6259234547615051,0,0,0.7798844575881958],"min":[0.6259234547615051,0,0,0.7798844575881958],"type":"VEC4"}],"materials":[{"pbrMetallicRoughness":{"metallicFactor":0,"roughnessFactor":1,"baseColorTexture":{"index":0}},"alphaMode":"MASK","alphaCutoff":0.05,"doubleSided":true}],"textures":[{"sampler":0,"source":0}],"samplers":[{"magFilter":9728,"minFilter":9728,"wrapS":33071,"wrapT":33071}],"images":[{"mimeType":"image/png","uri":"data:image/png;base64,"}],"meshes":[{"primitives":[{"mode":4,"attributes":{"POSITION":0,"NORMAL":1,"TEXCOORD_0":2,"JOINTS_0":3,"WEIGHTS_0":4},"indices":5,"material":0}]}],"skins":[{"inverseBindMatrices":6,"joints":[29,28,20,13,6,2,1,0,5,4,3,12,11,10,9,8,7,19,18,17,16,15,14,27,23,22,21,26,25,24],"skeleton":29}],"animations":[{"name":"animation.humanoid.base_pose2","samplers":[{"input":7,"output":8,"interpolation":"LINEAR"},{"input":9,"output":10,"interpolation":"LINEAR"},{"input":11,"output":12,"interpolation":"LINEAR"},{"input":13,"output":14,"interpolation":"LINEAR"},{"input":15,"output":16,"interpolation":"LINEAR"},{"input":17,"output":18,"interpolation":"LINEAR"},{"input":19,"output":20,"interpolation":"LINEAR"},{"input":21,"output":22,"interpolation":"LINEAR"},{"input":23,"output":24,"interpolation":"LINEAR"},{"input":25,"output":26,"interpolation":"LINEAR"},{"input":27,"output":28,"interpolation":"LINEAR"},{"input":29,"output":30,"interpolation":"LINEAR"},{"input":31,"output":32,"interpolation":"LINEAR"},{"input":33,"output":34,"interpolation":"LINEAR"},{"input":35,"output":36,"interpolation":"LINEAR"},{"input":37,"output":38,"interpolation":"LINEAR"},{"input":39,"output":40,"interpolation":"LINEAR"},{"input":41,"output":42,"interpolation":"LINEAR"},{"input":43,"output":44,"interpolation":"LINEAR"},{"input":45,"output":46,"interpolation":"LINEAR"},{"input":47,"output":48,"interpolation":"LINEAR"},{"input":49,"output":50,"interpolation":"LINEAR"}],"channels":[{"sampler":0,"target":{"node":28,"path":"rotation"}},{"sampler":1,"target":{"node":28,"path":"translation"}},{"sampler":2,"target":{"node":11,"path":"rotation"}},{"sampler":3,"target":{"node":2,"path":"rotation"}},{"sampler":4,"target":{"node":2,"path":"translation"}},{"sampler":5,"target":{"node":26,"path":"rotation"}},{"sampler":6,"target":{"node":26,"path":"translation"}},{"sampler":7,"target":{"node":23,"path":"rotation"}},{"sampler":8,"target":{"node":23,"path":"translation"}},{"sampler":9,"target":{"node":20,"path":"rotation"}},{"sampler":10,"target":{"node":1,"path":"rotation"}},{"sampler":11,"target":{"node":1,"path":"translation"}},{"sampler":12,"target":{"node":1,"path":"scale"}},{"sampler":13,"target":{"node":4,"path":"rotation"}},{"sampler":14,"target":{"node":4,"path":"translation"}},{"sampler":15,"target":{"node":4,"path":"scale"}},{"sampler":16,"target":{"node":19,"path":"rotation"}},{"sampler":17,"target":{"node":18,"path":"rotation"}},{"sampler":18,"target":{"node":17,"path":"rotation"}},{"sampler":19,"target":{"node":16,"path":"rotation"}},{"sampler":20,"target":{"node":15,"path":"rotation"}},{"sampler":21,"target":{"node":14,"path":"rotation"}}]}]}