{"asset":{"version":"2.0","generator":"Blockbench 5.1.3 glTF exporter"},"scenes":[{"nodes":[30],"name":"blockbench_export"}],"scene":0,"nodes":[{"translation":[0.0625,-0.2875,-0.0375],"name":"righthand"},{"translation":[-0.07500000000000001,-0.275,0],"name":"elbow_right","children":[0]},{"rotation":[0,0,0.3420201433256687,0.9396926207859084],"translation":[0.23125,0.05625000000000002,0],"name":"rightarm","children":[1]},{"translation":[0,-0.2875,-0.0375],"name":"lefthand"},{"translation":[0.012500000000000011,-0.275,0],"name":"elbow_left","children":[3]},{"rotation":[0,0,-0.3826834323650898,0.9238795325112867],"translation":[-0.23125,0.05625000000000002,0],"name":"left arm","children":[4]},{"translation":[0,0.25,0],"name":"arms","children":[2,5]},{"rotation":[-0.043619387365336,0,0,0.9990482215818578],"translation":[0,-0.25,-0.25],"name":"jaw"},{"name":"head_angle","children":[7]},{"name":"head_ai","children":[8]},{"translation":[0,0.375,0],"name":"head_correction","children":[9]},{"translation":[0,-0.03125,-0.03125],"name":"head","children":[10]},{"translation":[0,0.3125,0],"name":"neck","children":[11]},{"translation":[0,0.25,0],"name":"torso2","children":[6,12]},{"translation":[0,0,0.1875],"name":"fire"},{"translation":[0,0,0.25],"name":"tail5","children":[14]},{"translation":[0,0,0.25],"name":"tail4","children":[15]},{"translation":[0,0,0.25],"name":"tail3","children":[16]},{"translation":[0,0,0.3125],"name":"tail2","children":[17]},{"translation":[0,0,0.25],"name":"tail","children":[18]},{"translation":[0,-0.0625,0],"name":"body","children":[13,19]},{"translation":[0.03749999999999998,-0.125,0],"name":"rightfoot"},{"translation":[0,-0.1875,-0.0625],"name":"rightcalf","children":[21]},{"rotation":[0,-0.08715574274765817,0,0.9961946980917455],"translation":[0.3125,0.0625,0],"name":"rightleg","children":[22]},{"translation":[-0.03749999999999998,-0.125,0],"name":"leftfoot"},{"translation":[0,-0.1875,-0.0625],"name":"leftcalf","children":[24]},{"rotation":[0,0.08715574274765817,0,0.9961946980917455],"translation":[-0.3125,0.0625,0],"name":"leftleg","children":[25]},{"translation":[0,-0.125,0],"name":"legs","children":[23,26]},{"translation":[0,0.4375,0],"name":"waist","children":[20,27]},{"name":"root","children":[28]},{"name":"root","mesh":0,"children":[29],"skin":0}],"bufferViews":[{"buffer":0,"byteOffset":0,"byteLength":15264,"target":34962,"byteStride":12},{"buffer":0,"byteOffset":15264,"byteLength":15264,"target":34962,"byteStride":12},{"buffer":0,"byteOffset":30528,"byteLength":10176,"target":34962,"byteStride":8},{"buffer":0,"byteOffset":40704,"byteLength":10176,"target":34962,"byteStride":8},{"buffer":0,"byteOffset":50880,"byteLength":20352,"target":34962,"byteStride":16},{"buffer":0,"byteOffset":71232,"byteLength":3816,"target":34963},{"buffer":0,"byteOffset":75048,"byteLength":1920},{"buffer":0,"byteOffset":76968,"byteLength":480},{"buffer":0,"byteOffset":77448,"byteLength":1920},{"buffer":0,"byteOffset":79368,"byteLength":480},{"buffer":0,"byteOffset":79848,"byteLength":1440},{"buffer":0,"byteOffset":81288,"byteLength":480},{"buffer":0,"byteOffset":81768,"byteLength":1920},{"buffer":0,"byteOffset":83688,"byteLength":480},{"buffer":0,"byteOffset":84168,"byteLength":1920},{"buffer":0,"byteOffset":86088,"byteLength":480},{"buffer":0,"byteOffset":86568,"byteLength":1440},{"buffer":0,"byteOffset":88008,"byteLength":480},{"buffer":0,"byteOffset":88488,"byteLength":1920},{"buffer":0,"byteOffset":90408,"byteLength":480},{"buffer":0,"byteOffset":90888,"byteLength":1440},{"buffer":0,"byteOffset":92328,"byteLength":480},{"buffer":0,"byteOffset":92808,"byteLength":1920},{"buffer":0,"byteOffset":94728,"byteLength":480},{"buffer":0,"byteOffset":95208,"byteLength":1440},{"buffer":0,"byteOffset":96648,"byteLength":4},{"buffer":0,"byteOffset":96652,"byteLength":16},{"buffer":0,"byteOffset":96668,"byteLength":4},{"buffer":0,"byteOffset":96672,"byteLength":16},{"buffer":0,"byteOffset":96688,"byteLength":4},{"buffer":0,"byteOffset":96692,"byteLength":12},{"buffer":0,"byteOffset":96704,"byteLength":4},{"buffer":0,"byteOffset":96708,"byteLength":12},{"buffer":0,"byteOffset":96720,"byteLength":4},{"buffer":0,"byteOffset":96724,"byteLength":16},{"buffer":0,"byteOffset":96740,"byteLength":4},{"buffer":0,"byteOffset":96744,"byteLength":12},{"buffer":0,"byteOffset":96756,"byteLength":4},{"buffer":0,"byteOffset":96760,"byteLength":12},{"buffer":0,"byteOffset":96772,"byteLength":480},{"buffer":0,"byteOffset":97252,"byteLength":1920},{"buffer":0,"byteOffset":99172,"byteLength":480},{"buffer":0,"byteOffset":99652,"byteLength":1920},{"buffer":0,"byteOffset":101572,"byteLength":480},{"buffer":0,"byteOffset":102052,"byteLength":1920},{"buffer":0,"byteOffset":103972,"byteLength":480},{"buffer":0,"byteOffset":104452,"byteLength":1920},{"buffer":0,"byteOffset":106372,"byteLength":480},{"buffer":0,"byteOffset":106852,"byteLength":1920},{"buffer":0,"byteOffset":108772,"byteLength":4},{"buffer":0,"byteOffset":108776,"byteLength":16}],"buffers":[{"byteLength":108792,"uri":"data:application/octet-stream;base64,"}],"accessors":[{"bufferView":0,"componentType":5126,"count":1272,"max":[0.7706384062767029,1.5950000286102295,1.75],"min":[-0.825282096862793,0,-0.4312500059604645],"type":"VEC3"},{"bufferView":1,"componentType":5126,"count":1272,"max":[1,1,1],"min":[-1,-1,-1],"type":"VEC3"},{"bufferView":2,"componentType":5126,"count":1272,"max":[0.6170654296875,0.5311279296875],"min":[-0.0001220703125,0.00012207776308059692],"type":"VEC2"},{"bufferView":3,"componentType":5123,"count":1272,"max":[0,29,0,0],"min":[0,2,0,0],"type":"VEC4"},{"bufferView":4,"componentType":5126,"count":1272,"max":[0,1,0,0],"min":[0,1,0,0],"type":"VEC4"},{"bufferView":5,"componentType":5123,"count":1908,"max":[1271],"min":[0],"type":"SCALAR"},{"bufferView":6,"componentType":5126,"count":30,"max":[1,0.7071067690849304,0.1736481785774231,0,0.6427876353263855,1,0.08715574443340302,0,0.1736481785774231,0,1,0,0.8220116496086121,0.06752525269985199,0.19030040502548218,1],"min":[0.7071067690849304,-0.6427876353263855,-0.1736481785774231,0,-0.7071067690849304,0.7071067690849304,0,0,-0.1736481785774231,-0.08715574443340302,0.9848077297210693,0,-0.7757437229156494,-1.28125,-1.5,1],"type":"MAT4"},{"bufferView":7,"componentType":5126,"count":120,"max":[6.375],"min":[0],"type":"SCALAR"},{"bufferView":8,"componentType":5126,"count":120,"max":[0,0,0.008725745603442192,1],"min":[0,0,-0.008726535364985466,0.9999619126319885],"type":"VEC4"},{"bufferView":9,"componentType":5126,"count":120,"max":[6.375],"min":[0],"type":"SCALAR"},{"bufferView":10,"componentType":5126,"count":120,"max":[0.015619645826518536,0.4375,0],"min":[-0.015621156431734562,0.4375,0],"type":"VEC3"},{"bufferView":11,"componentType":5126,"count":120,"max":[6.375],"min":[0],"type":"SCALAR"},{"bufferView":12,"componentType":5126,"count":120,"max":[-0.03923964500427246,0.008903424255549908,0.026112647727131844,0.9991778135299683],"min":[-0.07417239993810654,-0.008797739632427692,-0.026128282770514488,0.9969095587730408],"type":"VEC4"},{"bufferView":13,"componentType":5126,"count":120,"max":[6.375],"min":[0],"type":"SCALAR"},{"bufferView":14,"componentType":5126,"count":120,"max":[0.03264789655804634,-0.12818297743797302,0.39580589532852173,0.9171717762947083],"min":[0.02984531596302986,-0.1288643330335617,0.3758978545665741,0.9087579250335693],"type":"VEC4"},{"bufferView":15,"componentType":5126,"count":120,"max":[6.375],"min":[0],"type":"SCALAR"},{"bufferView":16,"componentType":5126,"count":120,"max":[0.23125000298023224,0.0031250000465661287,0],"min":[0.23125000298023224,-0.009372356347739697,0],"type":"VEC3"},{"bufferView":17,"componentType":5126,"count":120,"max":[6.375],"min":[0],"type":"SCALAR"},{"bufferView":18,"componentType":5126,"count":120,"max":[-0.05877680331468582,0.23821942508220673,-0.03531660884618759,0.968787670135498],"min":[-0.06375133991241455,0.23693664371967316,-0.055591657757759094,0.9678359031677246],"type":"VEC4"},{"bufferView":19,"componentType":5126,"count":120,"max":[6.375],"min":[0],"type":"SCALAR"},{"bufferView":20,"componentType":5126,"count":120,"max":[-0.32500535249710083,0.0625,-0.015625],"min":[-0.35624614357948303,0.0625,-0.015625],"type":"VEC3"},{"bufferView":21,"componentType":5126,"count":120,"max":[6.375],"min":[0],"type":"SCALAR"},{"bufferView":22,"componentType":5126,"count":120,"max":[-0.004703065846115351,-0.11318794637918472,0.03784595802426338,0.9934020638465881],"min":[-0.007074348628520966,-0.11331124603748322,0.0170515738427639,0.9928273558616638],"type":"VEC4"},{"bufferView":23,"componentType":5126,"count":120,"max":[6.375],"min":[0],"type":"SCALAR"},{"bufferView":24,"componentType":5126,"count":120,"max":[0.3531196415424347,0.0625,-0.04062499850988388],"min":[0.3218788504600525,0.0625,-0.04062499850988388],"type":"VEC3"},{"bufferView":25,"componentType":5126,"count":1,"max":[0],"min":[0],"type":"SCALAR"},{"bufferView":26,"componentType":5126,"count":1,"max":[0,0,0,1],"min":[0,0,0,1],"type":"VEC4"},{"bufferView":27,"componentType":5126,"count":1,"max":[0],"min":[0],"type":"SCALAR"},{"bufferView":28,"componentType":5126,"count":1,"max":[0.5,0,0,0.8660253882408142],"min":[0.5,0,0,0.8660253882408142],"type":"VEC4"},{"bufferView":29,"componentType":5126,"count":1,"max":[0],"min":[0],"type":"SCALAR"},{"bufferView":30,"componentType":5126,"count":1,"max":[-0.07500000298023224,-0.3375000059604645,0.05000000074505806],"min":[-0.07500000298023224,-0.3375000059604645,0.05000000074505806],"type":"VEC3"},{"bufferView":31,"componentType":5126,"count":1,"max":[0],"min":[0],"type":"SCALAR"},{"bufferView":32,"componentType":5126,"count":1,"max":[1.0149999856948853,1,1],"min":[1.0149999856948853,1,1],"type":"VEC3"},{"bufferView":33,"componentType":5126,"count":1,"max":[0],"min":[0],"type":"SCALAR"},{"bufferView":34,"componentType":5126,"count":1,"max":[0.5,0,0,0.8660253882408142],"min":[0.5,0,0,0.8660253882408142],"type":"VEC4"},{"bufferView":35,"componentType":5126,"count":1,"max":[0],"min":[0],"type":"SCALAR"},{"bufferView":36,"componentType":5126,"count":1,"max":[0.012500000186264515,-0.3375000059604645,0.05000000074505806],"min":[0.012500000186264515,-0.3375000059604645,0.05000000074505806],"type":"VEC3"},{"bufferView":37,"componentType":5126,"count":1,"max":[0],"min":[0],"type":"SCALAR"},{"bufferView":38,"componentType":5126,"count":1,"max":[1.0149999856948853,1,1],"min":[1.0149999856948853,1,1],"type":"VEC3"},{"bufferView":39,"componentType":5126,"count":120,"max":[6.375],"min":[0],"type":"SCALAR"},{"bufferView":40,"componentType":5126,"count":120,"max":[0.042946573346853256,0.17347276210784912,0.007570432033389807,0.9990482330322266],"min":[-0.04361938685178757,-0.17346487939357758,-0.007572179660201073,0.983872652053833],"type":"VEC4"},{"bufferView":41,"componentType":5126,"count":120,"max":[6.375],"min":[0],"type":"SCALAR"},{"bufferView":42,"componentType":5126,"count":120,"max":[-0.15095409750938416,0.17033560574054718,0.03631606325507164,0.9841375350952148],"min":[-0.23591682314872742,-0.1703115701675415,-0.03636716306209564,0.9615445137023926],"type":"VEC4"},{"bufferView":43,"componentType":5126,"count":120,"max":[6.375],"min":[0],"type":"SCALAR"},{"bufferView":44,"componentType":5126,"count":120,"max":[-0.1509508639574051,0.17033660411834717,0.036334484815597534,0.984138548374176],"min":[-0.23591548204421997,-0.17030662298202515,-0.03637482225894928,0.9615439176559448],"type":"VEC4"},{"bufferView":45,"componentType":5126,"count":120,"max":[6.375],"min":[0],"type":"SCALAR"},{"bufferView":46,"componentType":5126,"count":120,"max":[-0.1509508639574051,0.17033660411834717,0.036334484815597534,0.984138548374176],"min":[-0.23591548204421997,-0.17030662298202515,-0.03637482225894928,0.9615439176559448],"type":"VEC4"},{"bufferView":47,"componentType":5126,"count":120,"max":[6.375],"min":[0],"type":"SCALAR"},{"bufferView":48,"componentType":5126,"count":120,"max":[0.04328786954283714,0.17362986505031586,0.005838110111653805,1],"min":[-0.04324842616915703,-0.17363786697387695,-0.0058403643779456615,0.9848091006278992],"type":"VEC4"},{"bufferView":49,"componentType":5126,"count":1,"max":[0],"min":[0],"type":"SCALAR"},{"bufferView":50,"componentType":5126,"count":1,"max":[0.6259234547615051,0,0,0.7798844575881958],"min":[0.6259234547615051,0,0,0.7798844575881958],"type":"VEC4"}],"materials":[{"pbrMetallicRoughness":{"metallicFactor":0,"roughnessFactor":1,"baseColorTexture":{"index":0}},"alphaMode":"MASK","alphaCutoff":0.05,"doubleSided":true}],"textures":[{"sampler":0,"source":0,"name":"charmander.png"}],"samplers":[{"magFilter":9728,"minFilter":9728,"wrapS":33071,"wrapT":33071}],"images":[{"mimeType":"image/png","uri":"data:image/png;base64,"}],"meshes":[{"primitives":[{"mode":4,"attributes":{"POSITION":0,"NORMAL":1,"TEXCOORD_0":2,"JOINTS_0":3,"WEIGHTS_0":4},"indices":5,"material":0}]}],"skins":[{"inverseBindMatrices":6,"joints":[29,28,20,13,6,2,1,0,5,4,3,12,11,10,9,8,7,19,18,17,16,15,14,27,23,22,21,26,25,24],"skeleton":29}],"animations":[{"name":"animation.humanoid.base_pose2","samplers":[{"input":7,"output":8,"interpolation":"LINEAR"},{"input":9,"output":10,"interpolation":"LINEAR"},{"input":11,"output":12,"interpolation":"LINEAR"},{"input":13,"output":14,"interpolation":"LINEAR"},{"input":15,"output":16,"interpolation":"LINEAR"},{"input":17,"output":18,"interpolation":"LINEAR"},{"input":19,"output":20,"interpolation":"LINEAR"},{"input":21,"output":22,"interpolation":"LINEAR"},{"input":23,"output":24,"interpolation":"LINEAR"},{"input":25,"output":26,"interpolation":"LINEAR"},{"input":27,"output":28,"interpolation":"LINEAR"},{"input":29,"output":30,"interpolation":"LINEAR"},{"input":31,"output":32,"interpolation":"LINEAR"},{"input":33,"output":34,"interpolation":"LINEAR"},{"input":35,"output":36,"interpolation":"LINEAR"},{"input":37,"output":38,"interpolation":"LINEAR"},{"input":39,"output":40,"interpolation":"LINEAR"},{"input":41,"output":42,"interpolation":"LINEAR"},{"input":43,"output":44,"interpolation":"LINEAR"},{"input":45,"output":46,"interpolation":"LINEAR"},{"input":47,"output":48,"interpolation":"LINEAR"},{"input":49,"output":50,"interpolation":"LINEAR"}],"channels":[{"sampler":0,"target":{"node":28,"path":"rotation"}},{"sampler":1,"target":{"node":28,"path":"translation"}},{"sampler":2,"target":{"node":11,"path":"rotation"}},{"sampler":3,"target":{"node":2,"path":"rotation"}},{"sampler":4,"target":{"node":2,"path":"translation"}},{"sampler":5,"target":{"node":26,"path":"rotation"}},{"sampler":6,"target":{"node":26,"path":"translation"}},{"sampler":7,"target":{"node":23,"path":"rotation"}},{"sampler":8,"target":{"node":23,"path":"translation"}},{"sampler":9,"target":{"node":20,"path":"rotation"}},{"sampler":10,"target":{"node":1,"path":"rotation"}},{"sampler":11,"target":{"node":1,"path":"translation"}},{"sampler":12,"target":{"node":1,"path":"scale"}},{"sampler":13,"target":{"node":4,"path":"rotation"}},{"sampler":14,"target":{"node":4,"path":"translation"}},{"sampler":15,"target":{"node":4,"path":"scale"}},{"sampler":16,"target":{"node":19,"path":"rotation"}},{"sampler":17,"target":{"node":18,"path":"rotation"}},{"sampler":18,"target":{"node":17,"path":"rotation"}},{"sampler":19,"target":{"node":16,"path":"rotation"}},{"sampler":20,"target":{"node":15,"path":"rotation"}},{"sampler":21,"target":{"node":14,"path":"rotation"}}]}]}