{"asset":{"version":"2.0","generator":"Blockbench 5.1.3 glTF exporter"},"scenes":[{"nodes":[30],"name":"blockbench_export"}],"scene":0,"nodes":[{"translation":[0,-0.9375,0],"name":"Rightfoot"},{"rotation":[-0.49999999999999994,0,0,0.8660254037844387],"translation":[-0.18125,-0.858551875,-0.15767562499999999],"name":"Rightcalf","children":[0]},{"rotation":[0.23451936146805,-0.06848866475659261,0.07259893246943959,0.9669743362162074],"translation":[0.24375,1.75,0.0625],"name":"rightleg","children":[1]},{"translation":[0,-0.9375,0],"name":"Leftfoot"},{"rotation":[-0.49999999999999994,0,0,0.8660254037844387],"translation":[0.18125,-0.858551875,-0.15767562499999999],"name":"Leftcalf","children":[3]},{"rotation":[0.23451936146805,0.06848866475659261,-0.07259893246943959,0.9669743362162074],"translation":[-0.24375,1.75,0.0625],"name":"leftleg","children":[4]},{"translation":[0.0625,0.625,0],"name":"rightear2"},{"rotation":[-0.15035292463807928,-0.023141528826992795,-0.15035292463807928,0.9768584676139638],"translation":[0.2104625,0.7239062499999998,-0.31569375],"name":"rightear","children":[6]},{"translation":[-0.0625,0.625,0],"name":"leftear2"},{"rotation":[-0.15035292463807928,0.023141528826992795,0.15035292463807928,0.9768584676139638],"translation":[-0.2104625,0.7239062499999998,-0.31569375],"name":"leftear","children":[8]},{"translation":[0,0,0.0625],"name":"head","children":[7,9]},{"rotation":[0,0.08715574274765817,0,0.9961946980917455],"translation":[0,-0.1875,-0.11875],"name":"Rightfingers"},{"rotation":[0.06515424417895462,-0.04352599760866939,-0.005700220892038867,0.9969091831653579],"translation":[0.125,-0.625,0.0625],"name":"Righthand","children":[11]},{"rotation":[0.14981229013430022,-0.02641594879240171,-0.17162717516886133,0.9733460782875073],"translation":[0.25,-0.625,0],"name":"RightForearm","children":[12]},{"rotation":[-0.02343566303534959,-0.13464784252853848,0.2161459452307604,0.9667479808930579],"translation":[0.5,-0.375,0],"name":"rightarm","children":[13]},{"rotation":[0,-0.08715574274765817,0,0.9961946980917455],"translation":[0,-0.1875,-0.11875],"name":"Leftfingers"},{"rotation":[0.06515424417895462,0.04352599760866939,0.005700220892038867,0.9969091831653579],"translation":[-0.125,-0.625,0.0625],"name":"Lefthand","children":[15]},{"rotation":[0.14981229013430022,0.02641594879240171,0.17162717516886133,0.9733460782875073],"translation":[-0.25,-0.625,0],"name":"LeftForearm","children":[16]},{"rotation":[-0.02343566303534959,0.13464784252853848,-0.2161459452307604,0.9667479808930579],"translation":[-0.5,-0.375,0],"name":"leftarm","children":[17]},{"translation":[0,0.4375,0],"name":"Tail7"},{"translation":[0,0.5625,-0.125],"name":"tail6","children":[19]},{"translation":[0,0.6875,0],"name":"tail5","children":[20]},{"translation":[0.04852875,0.6810868750000001,0.24703687500000004],"name":"Tail4","children":[21]},{"translation":[0,0,0.5],"name":"Tail3","children":[22]},{"translation":[0,-0.0625,0.4375],"name":"Tail2","children":[23]},{"rotation":[0.1057469754061214,-0.025876163707747115,0.23627316193487743,0.9655687413610292],"translation":[0,-1.3125,0.3125],"name":"t","children":[24]},{"translation":[0,-0.0625,0],"name":"alien","children":[25]},{"translation":[0,1.5625,0],"name":"body","children":[10,14,18,26]},{"rotation":[-0.043619387365336,0,0,0.9990482215818578],"translation":[0,1.75,0],"name":"waist","children":[27]},{"name":"root","children":[2,5,28]},{"name":"root","mesh":0,"children":[29],"skin":0}],"bufferViews":[{"buffer":0,"byteOffset":0,"byteLength":33408,"target":34962,"byteStride":12},{"buffer":0,"byteOffset":33408,"byteLength":33408,"target":34962,"byteStride":12},{"buffer":0,"byteOffset":66816,"byteLength":22272,"target":34962,"byteStride":8},{"buffer":0,"byteOffset":89088,"byteLength":22272,"target":34962,"byteStride":8},{"buffer":0,"byteOffset":111360,"byteLength":44544,"target":34962,"byteStride":16},{"buffer":0,"byteOffset":155904,"byteLength":8352,"target":34963},{"buffer":0,"byteOffset":164256,"byteLength":1920},{"buffer":0,"byteOffset":166176,"byteLength":2800},{"buffer":0,"byteOffset":168976,"byteLength":11200},{"buffer":0,"byteOffset":180176,"byteLength":2800},{"buffer":0,"byteOffset":182976,"byteLength":8400},{"buffer":0,"byteOffset":191376,"byteLength":2800},{"buffer":0,"byteOffset":194176,"byteLength":11200},{"buffer":0,"byteOffset":205376,"byteLength":2800},{"buffer":0,"byteOffset":208176,"byteLength":8400},{"buffer":0,"byteOffset":216576,"byteLength":2800},{"buffer":0,"byteOffset":219376,"byteLength":11200},{"buffer":0,"byteOffset":230576,"byteLength":2800},{"buffer":0,"byteOffset":233376,"byteLength":8400},{"buffer":0,"byteOffset":241776,"byteLength":4},{"buffer":0,"byteOffset":241780,"byteLength":16},{"buffer":0,"byteOffset":241796,"byteLength":2800},{"buffer":0,"byteOffset":244596,"byteLength":11200},{"buffer":0,"byteOffset":255796,"byteLength":2800},{"buffer":0,"byteOffset":258596,"byteLength":8400},{"buffer":0,"byteOffset":266996,"byteLength":2800},{"buffer":0,"byteOffset":269796,"byteLength":11200},{"buffer":0,"byteOffset":280996,"byteLength":2800},{"buffer":0,"byteOffset":283796,"byteLength":8400},{"buffer":0,"byteOffset":292196,"byteLength":2800},{"buffer":0,"byteOffset":294996,"byteLength":11200},{"buffer":0,"byteOffset":306196,"byteLength":2800},{"buffer":0,"byteOffset":308996,"byteLength":11200},{"buffer":0,"byteOffset":320196,"byteLength":2800},{"buffer":0,"byteOffset":322996,"byteLength":11200},{"buffer":0,"byteOffset":334196,"byteLength":2800},{"buffer":0,"byteOffset":336996,"byteLength":11200},{"buffer":0,"byteOffset":348196,"byteLength":2800},{"buffer":0,"byteOffset":350996,"byteLength":11200},{"buffer":0,"byteOffset":362196,"byteLength":2800},{"buffer":0,"byteOffset":364996,"byteLength":11200},{"buffer":0,"byteOffset":376196,"byteLength":2800},{"buffer":0,"byteOffset":378996,"byteLength":11200},{"buffer":0,"byteOffset":390196,"byteLength":2800},{"buffer":0,"byteOffset":392996,"byteLength":11200},{"buffer":0,"byteOffset":404196,"byteLength":2800},{"buffer":0,"byteOffset":406996,"byteLength":11200},{"buffer":0,"byteOffset":418196,"byteLength":2800},{"buffer":0,"byteOffset":420996,"byteLength":11200}],"buffers":[{"byteLength":432196,"uri":"data:application/octet-stream;base64,"}],"accessors":[{"bufferView":0,"componentType":5126,"count":2784,"max":[1.5629603862762451,4.905844688415527,2.324413299560547],"min":[-1.5629603862762451,-0.009285851381719112,-1.45126211643219],"type":"VEC3"},{"bufferView":1,"componentType":5126,"count":2784,"max":[1,0.9999589920043945,0.9990482330322266],"min":[-1,-0.9999589920043945,-0.9990482330322266],"type":"VEC3"},{"bufferView":2,"componentType":5126,"count":2784,"max":[0.55078125,0.5625],"min":[0,0],"type":"VEC2"},{"bufferView":3,"componentType":5123,"count":2784,"max":[0,29,0,0],"min":[0,1,0,0],"type":"VEC4"},{"bufferView":4,"componentType":5126,"count":2784,"max":[0,1,0,0],"min":[0,1,0,0],"type":"VEC4"},{"bufferView":5,"componentType":5123,"count":4176,"max":[2783],"min":[0],"type":"SCALAR"},{"bufferView":6,"componentType":5126,"count":30,"max":[1,0.41160619258880615,0.29069268703460693,0,0.4577982723712921,1,0.529888391494751,0,0.3387475311756134,0.4436039924621582,1,0,1.7166595458984375,0,0.9964197278022766,1],"min":[0.8703017830848694,-0.4617486000061035,-0.29069268703460693,0,-0.44442135095596313,0.8411266207695007,-0.46349281072616577,0,-0.3387475311756134,-0.5408372282981873,0.8244823217391968,0,-1.7166595458984375,-4.382519721984863,-1.2206261157989502,1],"type":"MAT4"},{"bufferView":7,"componentType":5126,"count":700,"max":[37.16666793823242],"min":[0],"type":"SCALAR"},{"bufferView":8,"componentType":5126,"count":700,"max":[0.22997237741947174,-0.08546119183301926,0.11534059792757034,0.9647559523582458],"min":[0.2281322330236435,-0.09025848656892776,0.09515771269798279,0.9625516533851624],"type":"VEC4"},{"bufferView":9,"componentType":5126,"count":700,"max":[37.16666793823242],"min":[0],"type":"SCALAR"},{"bufferView":10,"componentType":5126,"count":700,"max":[0.2843749225139618,1.75,0.02187499962747097],"min":[0.2531258165836334,1.75,0.02187499962747097],"type":"VEC3"},{"bufferView":11,"componentType":5126,"count":700,"max":[37.16666793823242],"min":[0],"type":"SCALAR"},{"bufferView":12,"componentType":5126,"count":700,"max":[0.17804385721683502,0.20963236689567566,-0.1411972939968109,0.9518133997917175],"min":[0.17369185388088226,0.20594897866249084,-0.16109903156757355,0.9486477375030518],"type":"VEC4"},{"bufferView":13,"componentType":5126,"count":700,"max":[37.16666793823242],"min":[0],"type":"SCALAR"},{"bufferView":14,"componentType":5126,"count":700,"max":[-0.2562500834465027,1.75,0.046875],"min":[-0.28749918937683105,1.75,0.046875],"type":"VEC3"},{"bufferView":15,"componentType":5126,"count":700,"max":[37.16666793823242],"min":[0],"type":"SCALAR"},{"bufferView":16,"componentType":5126,"count":700,"max":[-0.04361772537231445,0.00038064614636823535,0.008718220517039299,0.9990482330322266],"min":[-0.04361938685178757,-0.00038064573891460896,-0.008718229830265045,0.9990102052688599],"type":"VEC4"},{"bufferView":17,"componentType":5126,"count":700,"max":[37.16666793823242],"min":[0],"type":"SCALAR"},{"bufferView":18,"componentType":5126,"count":700,"max":[0.015624916180968285,1.75,0],"min":[-0.015624189749360085,1.7312500476837158,0],"type":"VEC3"},{"bufferView":19,"componentType":5126,"count":1,"max":[0],"min":[0],"type":"SCALAR"},{"bufferView":20,"componentType":5126,"count":1,"max":[0.02181488461792469,0,0,0.9997619986534119],"min":[0.02181488461792469,0,0,0.9997619986534119],"type":"VEC4"},{"bufferView":21,"componentType":5126,"count":700,"max":[37.16666793823242],"min":[0],"type":"SCALAR"},{"bufferView":22,"componentType":5126,"count":700,"max":[0.00314393755979836,-0.264018177986145,0.25864318013191223,0.934607982635498],"min":[-0.0026163174770772457,-0.2640368938446045,0.23831160366535187,0.9291868805885315],"type":"VEC4"},{"bufferView":23,"componentType":5126,"count":700,"max":[37.16666793823242],"min":[0],"type":"SCALAR"},{"bufferView":24,"componentType":5126,"count":700,"max":[0.5,-0.4281249940395355,0],"min":[0.5,-0.44062501192092896,0],"type":"VEC3"},{"bufferView":25,"componentType":5126,"count":700,"max":[37.16666793823242],"min":[0],"type":"SCALAR"},{"bufferView":26,"componentType":5126,"count":700,"max":[0.00314393755979836,0.2640368938446045,-0.23831160366535187,0.934607982635498],"min":[-0.0026163174770772457,0.264018177986145,-0.25864318013191223,0.9291868805885315],"type":"VEC4"},{"bufferView":27,"componentType":5126,"count":700,"max":[37.16666793823242],"min":[0],"type":"SCALAR"},{"bufferView":28,"componentType":5126,"count":700,"max":[-0.5,-0.4281249940395355,0],"min":[-0.5,-0.44062501192092896,0],"type":"VEC3"},{"bufferView":29,"componentType":5126,"count":700,"max":[37.16666793823242],"min":[0],"type":"SCALAR"},{"bufferView":30,"componentType":5126,"count":700,"max":[-0.0391399972140789,0.008912126533687115,0.02615204267203808,0.9991893172264099],"min":[-0.07420355081558228,-0.008915557526051998,-0.026157669723033905,0.9969095587730408],"type":"VEC4"},{"bufferView":31,"componentType":5126,"count":700,"max":[37.16666793823242],"min":[0],"type":"SCALAR"},{"bufferView":32,"componentType":5126,"count":700,"max":[-0.08860801160335541,0.14751654863357544,-0.12199470400810242,0.9833561778068542],"min":[-0.2083902806043625,-0.19341149926185608,-0.17593730986118317,0.9478977918624878],"type":"VEC4"},{"bufferView":33,"componentType":5126,"count":700,"max":[37.16666793823242],"min":[0],"type":"SCALAR"},{"bufferView":34,"componentType":5126,"count":700,"max":[-0.08862205594778061,0.19340670108795166,0.17593185603618622,0.9833574295043945],"min":[-0.2083836942911148,-0.1475144326686859,0.12199437618255615,0.9478977918624878],"type":"VEC4"},{"bufferView":35,"componentType":5126,"count":700,"max":[37.16666793823242],"min":[0],"type":"SCALAR"},{"bufferView":36,"componentType":5126,"count":700,"max":[0.18431350588798523,0.1519671231508255,0.25522008538246155,0.9707058072090149],"min":[0.058733388781547546,-0.18257291615009308,0.2119225114583969,0.9314281344413757],"type":"VEC4"},{"bufferView":37,"componentType":5126,"count":700,"max":[37.16666793823242],"min":[0],"type":"SCALAR"},{"bufferView":38,"componentType":5126,"count":700,"max":[-0.1509513407945633,0.1703372299671173,0.036378953605890274,0.9841399788856506],"min":[-0.23591682314872742,-0.1703256219625473,-0.03638044372200966,0.9615429639816284],"type":"VEC4"},{"bufferView":39,"componentType":5126,"count":700,"max":[37.16666793823242],"min":[0],"type":"SCALAR"},{"bufferView":40,"componentType":5126,"count":700,"max":[0.17234720289707184,0.17217318713665009,0.025862857699394226,0.9930474162101746],"min":[0.0864877924323082,-0.17217394709587097,-0.025858240202069283,0.9741354584693909],"type":"VEC4"},{"bufferView":41,"componentType":5126,"count":700,"max":[37.16666793823242],"min":[0],"type":"SCALAR"},{"bufferView":42,"componentType":5126,"count":700,"max":[-0.1509508639574051,0.1703372299671173,0.036380741745233536,0.9841399788856506],"min":[-0.2359159290790558,-0.17032858729362488,-0.036376867443323135,0.9615429639816284],"type":"VEC4"},{"bufferView":43,"componentType":5126,"count":700,"max":[37.16666793823242],"min":[0],"type":"SCALAR"},{"bufferView":44,"componentType":5126,"count":700,"max":[0.04328786954283714,0.17362986505031586,0.005840853322297335,1],"min":[-0.04328786954283714,-0.1736481785774231,-0.005840853322297335,0.9848077297210693],"type":"VEC4"},{"bufferView":45,"componentType":5126,"count":700,"max":[37.16666793823242],"min":[0],"type":"SCALAR"},{"bufferView":46,"componentType":5126,"count":700,"max":[0.04328786954283714,0.17362986505031586,0.005840853322297335,1],"min":[-0.04328786954283714,-0.1736481785774231,-0.005840853322297335,0.9848077297210693],"type":"VEC4"},{"bufferView":47,"componentType":5126,"count":700,"max":[37.16666793823242],"min":[0],"type":"SCALAR"},{"bufferView":48,"componentType":5126,"count":700,"max":[0.04328786954283714,0.17362986505031586,0.005840853322297335,1],"min":[-0.04328786954283714,-0.1736481785774231,-0.005840853322297335,0.9848077297210693],"type":"VEC4"}],"materials":[{"pbrMetallicRoughness":{"metallicFactor":0,"roughnessFactor":1,"baseColorTexture":{"index":0}},"alphaMode":"MASK","alphaCutoff":0.05,"doubleSided":true}],"textures":[{"sampler":0,"source":0,"name":"erno_fnaf.png"}],"samplers":[{"magFilter":9728,"minFilter":9728,"wrapS":33071,"wrapT":33071}],"images":[{"mimeType":"image/png","uri":"data:image/png;base64,"}],"meshes":[{"primitives":[{"mode":4,"attributes":{"POSITION":0,"NORMAL":1,"TEXCOORD_0":2,"JOINTS_0":3,"WEIGHTS_0":4},"indices":5,"material":0}]}],"skins":[{"inverseBindMatrices":6,"joints":[29,2,1,0,5,4,3,28,27,10,7,6,9,8,14,13,12,11,18,17,16,15,26,25,24,23,22,21,20,19],"skeleton":29}],"animations":[{"name":"animation.gamabunta.new","samplers":[{"input":7,"output":8,"interpolation":"LINEAR"},{"input":9,"output":10,"interpolation":"LINEAR"},{"input":11,"output":12,"interpolation":"LINEAR"},{"input":13,"output":14,"interpolation":"LINEAR"},{"input":15,"output":16,"interpolation":"LINEAR"},{"input":17,"output":18,"interpolation":"LINEAR"},{"input":19,"output":20,"interpolation":"LINEAR"},{"input":21,"output":22,"interpolation":"LINEAR"},{"input":23,"output":24,"interpolation":"LINEAR"},{"input":25,"output":26,"interpolation":"LINEAR"},{"input":27,"output":28,"interpolation":"LINEAR"},{"input":29,"output":30,"interpolation":"LINEAR"},{"input":31,"output":32,"interpolation":"LINEAR"},{"input":33,"output":34,"interpolation":"LINEAR"},{"input":35,"output":36,"interpolation":"LINEAR"},{"input":37,"output":38,"interpolation":"LINEAR"},{"input":39,"output":40,"interpolation":"LINEAR"},{"input":41,"output":42,"interpolation":"LINEAR"},{"input":43,"output":44,"interpolation":"LINEAR"},{"input":45,"output":46,"interpolation":"LINEAR"},{"input":47,"output":48,"interpolation":"LINEAR"}],"channels":[{"sampler":0,"target":{"node":2,"path":"rotation"}},{"sampler":1,"target":{"node":2,"path":"translation"}},{"sampler":2,"target":{"node":5,"path":"rotation"}},{"sampler":3,"target":{"node":5,"path":"translation"}},{"sampler":4,"target":{"node":28,"path":"rotation"}},{"sampler":5,"target":{"node":28,"path":"translation"}},{"sampler":6,"target":{"node":27,"path":"rotation"}},{"sampler":7,"target":{"node":14,"path":"rotation"}},{"sampler":8,"target":{"node":14,"path":"translation"}},{"sampler":9,"target":{"node":18,"path":"rotation"}},{"sampler":10,"target":{"node":18,"path":"translation"}},{"sampler":11,"target":{"node":10,"path":"rotation"}},{"sampler":12,"target":{"node":7,"path":"rotation"}},{"sampler":13,"target":{"node":9,"path":"rotation"}},{"sampler":14,"target":{"node":25,"path":"rotation"}},{"sampler":15,"target":{"node":24,"path":"rotation"}},{"sampler":16,"target":{"node":23,"path":"rotation"}},{"sampler":17,"target":{"node":22,"path":"rotation"}},{"sampler":18,"target":{"node":21,"path":"rotation"}},{"sampler":19,"target":{"node":20,"path":"rotation"}},{"sampler":20,"target":{"node":19,"path":"rotation"}}]}]}