{"asset":{"version":"2.0","generator":"Blockbench 5.1.3 glTF exporter"},"scenes":[{"nodes":[82],"name":"blockbench_export"}],"scene":0,"nodes":[{"translation":[0,-0.23952171874999992,0],"name":"Leftfeet"},{"rotation":[0,0,0.02181488503456112,0.9997620270799091],"translation":[0,-0.11942390625000016,0],"name":"Leftcalf","children":[0]},{"translation":[0,-0.35827171874999986,0],"name":"Leftknee","children":[1]},{"rotation":[0,0,-0.02181488503456112,0.9997620270799091],"translation":[-0.10384687499999999,0.865390625,-0.017307812500000002],"name":"LeftLeg","children":[2]},{"translation":[0,-0.23952171874999992,0],"name":"Rightfeet"},{"rotation":[0,0,-0.02181488503456112,0.9997620270799091],"translation":[0,-0.11942390625000016,0],"name":"Rightcalf","children":[4]},{"translation":[0,-0.35827171874999986,0],"name":"Rightknee","children":[5]},{"rotation":[0,0,0.02181488503456112,0.9997620270799091],"translation":[0.10384687499999998,0.865390625,-0.017307812500000002],"name":"RightLeg","children":[6]},{"translation":[0,0.22638618750000017,-0.11319309374999995],"name":"Mounth"},{"translation":[0,-0.07548125000000017,-0.035865937500000014],"name":"Head","children":[8]},{"rotation":[0,0,0.17364817766693033,0.984807753012208],"translation":[-0.04153875000000001,-0.0380771875,0],"name":"Finger1.17"},{"rotation":[0,0,0.17364817766693033,0.984807753012208],"translation":[-0.003461562500000015,-0.006923124999999919,-0.0588465625],"name":"Finger16","children":[10]},{"rotation":[0,0,0.17364817766693033,0.984807753012208],"translation":[-0.04153875000000001,-0.0380771875,0],"name":"Finger1.18"},{"rotation":[-0.030153689607045803,0.17101007166283433,0.17101007166283433,0.9698463103929541],"translation":[-0.003461562500000015,-0.006923124999999919,0],"name":"Finger17","children":[12]},{"rotation":[0,0,0.17364817766693033,0.984807753012208],"translation":[-0.04153875000000001,-0.0380771875,0],"name":"Finger1.19"},{"rotation":[0.05363651416469514,0.4728724345945567,0.08305954642747863,0.8755660435947357],"translation":[0.06576968750000001,-0.006923124999999919,0.034615625],"name":"Finger18","children":[14]},{"rotation":[0,0,0.17364817766693033,0.984807753012208],"translation":[-0.04153875000000001,-0.0380771875,0],"name":"Finger1.20"},{"rotation":[0.022665635416815415,-0.12854320606946854,0.17216259343480453,0.9763825861650423],"translation":[-0.003461562500000015,-0.006923124999999919,-0.1211546875],"name":"Finger19","children":[16]},{"rotation":[0,0,0.2798290140309921,0.9600498543859287],"translation":[-0.04153875000000001,-0.0380771875,0],"name":"Finger1.21"},{"rotation":[-0.05969407664043892,-0.5817593249372667,0.029311864950917546,0.8106377240393394],"translation":[0.06576968750000001,-0.006923124999999919,-0.1211546875],"name":"Finger20","children":[18]},{"rotation":[0,0,0.043619387365336,0.9990482215818578],"translation":[-0.103846875,-0.02769250000000001,0],"name":"LeftFingers2","children":[11,13,15,17,19]},{"rotation":[0,0,0.06540312923014306,0.9978589232386035],"translation":[0.01340442875000003,-0.224757994375,0.045228775624999995],"name":"Lefthand2","children":[20]},{"translation":[0.00344834562499996,-0.1736540031249999,0.00018188937499999738],"name":"LeftPulse2","children":[21]},{"rotation":[0.15208718494349097,0.0033185541808011753,0.021560992723439375,0.9881263071930092],"translation":[-0.027228021249999956,-0.16266322750000028,-0.04500031249999999],"name":"LeftForearm2","children":[22]},{"rotation":[0,0,-0.06540312923014306,0.9978589232386035],"translation":[-0.08307750000000005,-0.14056587124999975,0.024043383749999994],"name":"Leftarm2","children":[23]},{"rotation":[-0.08715574274765817,0,0,0.9961946980917455],"translation":[-0.20769374999999998,-0.24230937500000005,0],"name":"Leftsholder2","children":[24]},{"rotation":[0,0,-0.3826834323650898,0.9238795325112867],"translation":[0.04153875000000007,-0.0380771875,0],"name":"Finger1.3"},{"rotation":[0,0,-0.17364817766693033,0.984807753012208],"translation":[0.0034615624999999595,-0.006923124999999919,-0.05884656249999999],"name":"Finger2","children":[26]},{"rotation":[0,0,-0.3826834323650898,0.9238795325112867],"translation":[0.04153875000000007,-0.0380771875,0],"name":"Finger1.4"},{"rotation":[-0.030153689607045803,-0.17101007166283433,-0.17101007166283433,0.9698463103929541],"translation":[0.0034615624999999595,-0.006923124999999919,0],"name":"Finger3","children":[28]},{"rotation":[0,0,-0.3826834323650898,0.9238795325112867],"translation":[0.04153874999999996,-0.0380771875,0],"name":"Finger1.6"},{"rotation":[-0.08018180522849586,-0.4547336142564968,-0.15402781475222374,0.873535145519731],"translation":[-0.06576968750000001,-0.006923124999999919,0.034615625000000004],"name":"Finger5","children":[30]},{"rotation":[0,0,-0.42261826174069944,0.9063077870366499],"translation":[0.04153875000000007,-0.0380771875,0],"name":"Finger1.2"},{"rotation":[0.022665635416815415,0.12854320606946854,-0.17216259343480453,0.9763825861650423],"translation":[0.0034615624999999595,-0.006923124999999919,-0.12115468749999998],"name":"Finger1","children":[32]},{"rotation":[0,0,-0.42261826174069944,0.9063077870366499],"translation":[0.04153874999999996,-0.0380771875,0],"name":"Finger1.5"},{"rotation":[0.0996005029250512,0.5648625214636234,-0.14224425972292404,0.8067072841115988],"translation":[-0.06576968750000001,-0.006923124999999919,-0.12115468749999998],"name":"Finger4","children":[34]},{"rotation":[0,0,-0.043619387365336,0.9990482215818578],"translation":[0.10384687499999995,-0.027692499999999898,0],"name":"RightFingers","children":[27,29,31,33,35]},{"translation":[0,-0.06293749999999987,-0.0629375],"name":"rightItem"},{"rotation":[0,0,-0.06540312923014306,0.9978589232386035],"translation":[-0.01730781249999991,-0.24230937500000005,0.04500031249999999],"name":"Righthand","children":[36,37]},{"translation":[0.000016363749999970256,-0.22325252937499995,0.017952292499999994],"name":"Rightpulse","children":[38]},{"rotation":[0.15208718494349097,-0.0033185541808011753,-0.021560992723439375,0.9881263071930092],"translation":[0.002137986875000053,-0.2330304993750003,-0.0657696875],"name":"RightForearm","children":[39]},{"rotation":[0,0,0.06540312923014306,0.9978589232386035],"translation":[0.09000062499999995,-0.11076999999999959,0],"name":"Rightarm","children":[40]},{"translation":[0.34615625,0.03461562499999982,-0.034615625],"name":"Rightsholder","children":[41]},{"translation":[0,-0.24230937500000005,0.103846875],"name":"Backarms","children":[25,42]},{"rotation":[0,0,-0.17364817766693033,0.984807753012208],"translation":[0.04153875000000001,-0.0380771875,0],"name":"Finger1.7"},{"rotation":[0,0,-0.17364817766693033,0.984807753012208],"translation":[0.003461562500000015,-0.006923124999999919,-0.0588465625],"name":"Finger6","children":[44]},{"rotation":[0,0,-0.17364817766693033,0.984807753012208],"translation":[0.04153875000000001,-0.0380771875,0],"name":"Finger1.8"},{"rotation":[-0.030153689607045803,-0.17101007166283433,-0.17101007166283433,0.9698463103929541],"translation":[0.003461562500000015,-0.006923124999999919,0],"name":"Finger7","children":[46]},{"rotation":[0,0,-0.17364817766693033,0.984807753012208],"translation":[0.04153875000000001,-0.0380771875,0],"name":"Finger1.9"},{"rotation":[0.05363651416469514,-0.4728724345945567,-0.08305954642747863,0.8755660435947357],"translation":[-0.06576968750000001,-0.006923124999999919,0.034615625],"name":"Finger8","children":[48]},{"rotation":[0,0,-0.17364817766693033,0.984807753012208],"translation":[0.04153875000000001,-0.0380771875,0],"name":"Finger1.10"},{"rotation":[0.022665635416815415,0.12854320606946854,-0.17216259343480453,0.9763825861650423],"translation":[0.003461562500000015,-0.006923124999999919,-0.1211546875],"name":"Finger9","children":[50]},{"rotation":[0,0,-0.2798290140309921,0.9600498543859287],"translation":[0.04153875000000001,-0.0380771875,0],"name":"Finger1.11"},{"rotation":[-0.05969407664043892,0.5817593249372667,-0.029311864950917546,0.8106377240393394],"translation":[-0.06576968750000001,-0.006923124999999919,-0.1211546875],"name":"Finger10","children":[52]},{"rotation":[0,0,-0.043619387365336,0.9990482215818578],"translation":[0.10384687500000006,-0.02769250000000001,0],"name":"LeftFingers3","children":[45,47,49,51,53]},{"rotation":[0,0,-0.06540312923014306,0.9978589232386035],"translation":[-0.013404428750000086,-0.224757994375,0.045228775624999995],"name":"Lefthand3","children":[54]},{"translation":[-0.00344834562499996,-0.1736540031249999,0.00018188937499999738],"name":"RightPulse2","children":[55]},{"rotation":[0.15208718494349097,-0.0033185541808011753,-0.021560992723439375,0.9881263071930092],"translation":[0.027228021249999956,-0.16266322750000028,-0.04500031249999999],"name":"LeftForearm3","children":[56]},{"rotation":[0,0,0.06540312923014306,0.9978589232386035],"translation":[0.08307750000000005,-0.14056587124999975,0.024043383749999994],"name":"Leftarm3","children":[57]},{"rotation":[-0.08715574274765817,0,0,0.9961946980917455],"translation":[0.20769374999999998,-0.24230937500000005,0],"name":"Leftsholder3","children":[58]},{"rotation":[0,0,0.3826834323650898,0.9238795325112867],"translation":[-0.04153875000000007,-0.0380771875,0],"name":"Finger1.12"},{"rotation":[0,0,0.17364817766693033,0.984807753012208],"translation":[-0.0034615624999998484,-0.006923124999999919,-0.05884656249999999],"name":"Finger11","children":[60]},{"rotation":[0,0,0.3826834323650898,0.9238795325112867],"translation":[-0.04153875000000007,-0.0380771875,0],"name":"Finger1.13"},{"rotation":[-0.030153689607045803,0.17101007166283433,0.17101007166283433,0.9698463103929541],"translation":[-0.0034615624999998484,-0.006923124999999919,0],"name":"Finger12","children":[62]},{"rotation":[0,0,0.3826834323650898,0.9238795325112867],"translation":[-0.04153874999999996,-0.0380771875,0],"name":"Finger1.14"},{"rotation":[-0.08018180522849586,0.4547336142564968,0.15402781475222374,0.873535145519731],"translation":[0.06576968750000012,-0.006923124999999919,0.034615625000000004],"name":"Finger13","children":[64]},{"rotation":[0,0,0.42261826174069944,0.9063077870366499],"translation":[-0.04153875000000007,-0.0380771875,0],"name":"Finger1.15"},{"rotation":[0.022665635416815415,-0.12854320606946854,0.17216259343480453,0.9763825861650423],"translation":[-0.0034615624999998484,-0.006923124999999919,-0.12115468749999998],"name":"Finger14","children":[66]},{"rotation":[0,0,0.42261826174069944,0.9063077870366499],"translation":[-0.04153874999999996,-0.0380771875,0],"name":"Finger1.16"},{"rotation":[0.0996005029250512,-0.5648625214636234,0.14224425972292404,0.8067072841115988],"translation":[0.06576968750000012,-0.006923124999999919,-0.12115468749999998],"name":"Finger15","children":[68]},{"rotation":[0,0,0.043619387365336,0.9990482215818578],"translation":[-0.10384687500000006,-0.027692499999999898,0],"name":"LeftFingers","children":[61,63,65,67,69]},{"translation":[0,-0.06293749999999987,-0.0629375],"name":"leftItem"},{"rotation":[0,0,0.06540312923014306,0.9978589232386035],"translation":[0.017307812499999964,-0.24230937500000005,0.04500031249999999],"name":"Lefthand","children":[70,71]},{"translation":[-0.000016363750000025767,-0.22325252937499995,0.017952292499999994],"name":"Leftpulse","children":[72]},{"rotation":[0.15208718494349097,0.0033185541808011753,0.021560992723439375,0.9881263071930092],"translation":[-0.002137986875000053,-0.2330304993750003,-0.0657696875],"name":"LeftForearm","children":[73]},{"rotation":[0,0,-0.06540312923014306,0.9978589232386035],"translation":[-0.09000062499999995,-0.11076999999999959,0],"name":"Leftarm","children":[74]},{"translation":[-0.34615625,0.03461562499999982,-0.034615625],"name":"Leftsholder","children":[75]},{"translation":[0,-0.24230937500000005,0.103846875],"name":"Backarms2","children":[59,76]},{"translation":[0,0.5192343749999999,-0.06923125000000001],"name":"Body","children":[9,43,77]},{"translation":[0,0.3807718750000001,0],"name":"Torso","children":[78]},{"translation":[0,0.865390625,0],"name":"Waist","children":[79]},{"name":"Root","children":[3,7,80]},{"translation":[0.000004557656353869764,0.002385913541133232,-0.0002534932117202208],"name":"Root","mesh":0,"children":[81],"skin":0}],"bufferViews":[{"buffer":0,"byteOffset":0,"byteLength":28512,"target":34962,"byteStride":12},{"buffer":0,"byteOffset":28512,"byteLength":28512,"target":34962,"byteStride":12},{"buffer":0,"byteOffset":57024,"byteLength":19008,"target":34962,"byteStride":8},{"buffer":0,"byteOffset":76032,"byteLength":19008,"target":34962,"byteStride":8},{"buffer":0,"byteOffset":95040,"byteLength":38016,"target":34962,"byteStride":16},{"buffer":0,"byteOffset":133056,"byteLength":7128,"target":34963},{"buffer":0,"byteOffset":140184,"byteLength":5248},{"buffer":0,"byteOffset":145432,"byteLength":4},{"buffer":0,"byteOffset":145436,"byteLength":16},{"buffer":0,"byteOffset":145452,"byteLength":4},{"buffer":0,"byteOffset":145456,"byteLength":12},{"buffer":0,"byteOffset":145468,"byteLength":4},{"buffer":0,"byteOffset":145472,"byteLength":16},{"buffer":0,"byteOffset":145488,"byteLength":4},{"buffer":0,"byteOffset":145492,"byteLength":12},{"buffer":0,"byteOffset":145504,"byteLength":4},{"buffer":0,"byteOffset":145508,"byteLength":16},{"buffer":0,"byteOffset":145524,"byteLength":4},{"buffer":0,"byteOffset":145528,"byteLength":12},{"buffer":0,"byteOffset":145540,"byteLength":4},{"buffer":0,"byteOffset":145544,"byteLength":16},{"buffer":0,"byteOffset":145560,"byteLength":4},{"buffer":0,"byteOffset":145564,"byteLength":16},{"buffer":0,"byteOffset":145580,"byteLength":4},{"buffer":0,"byteOffset":145584,"byteLength":12},{"buffer":0,"byteOffset":145596,"byteLength":4},{"buffer":0,"byteOffset":145600,"byteLength":16},{"buffer":0,"byteOffset":145616,"byteLength":4},{"buffer":0,"byteOffset":145620,"byteLength":12},{"buffer":0,"byteOffset":145632,"byteLength":4},{"buffer":0,"byteOffset":145636,"byteLength":16}],"buffers":[{"byteLength":145652,"uri":"data:application/octet-stream;base64,"}],"accessors":[{"bufferView":0,"componentType":5126,"count":2376,"max":[0.6769741773605347,2.101870059967041,0.2469327449798584],"min":[-0.6733280420303345,-0.010603934526443481,-0.3847886621952057],"type":"VEC3"},{"bufferView":1,"componentType":5126,"count":2376,"max":[1,1,1],"min":[-1,-1,-1],"type":"VEC3"},{"bufferView":2,"componentType":5126,"count":2376,"max":[0.8125,0.7421875],"min":[0,0],"type":"VEC2"},{"bufferView":3,"componentType":5123,"count":2376,"max":[0,80,0,0],"min":[0,1,0,0],"type":"VEC4"},{"bufferView":4,"componentType":5126,"count":2376,"max":[0,1,0,0],"min":[0,1,0,0],"type":"VEC4"},{"bufferView":5,"componentType":5123,"count":3564,"max":[2375],"min":[0],"type":"SCALAR"},{"bufferView":6,"componentType":5126,"count":82,"max":[1,0.9545900225639343,0.9544750452041626,0,0.9625160694122314,1,0.18612784147262573,0,0.9599345922470093,0.6662216186523438,1,0,0.6363931894302368,0,0.41476136445999146,1],"min":[-0.17762692272663116,-0.9545900225639343,-0.9544750452041626,0,-0.9625160694122314,0.23691332340240479,-0.5130786299705505,0,-0.9599345922470093,-0.5658420324325562,0.1743651032447815,0,-0.6363931894302368,-1.9163018465042114,-0.29521170258522034,1],"type":"MAT4"},{"bufferView":7,"componentType":5126,"count":1,"max":[0],"min":[0],"type":"SCALAR"},{"bufferView":8,"componentType":5126,"count":1,"max":[-0.007865079678595066,-0.026447497308254242,0.05021457001566887,0.9983572363853455],"min":[-0.007865079678595066,-0.026447497308254242,0.05021457001566887,0.9983572363853455],"type":"VEC4"},{"bufferView":9,"componentType":5126,"count":1,"max":[0],"min":[0],"type":"SCALAR"},{"bufferView":10,"componentType":5126,"count":1,"max":[0.12884686887264252,0.8653905987739563,-0.057932812720537186],"min":[0.12884686887264252,0.8653905987739563,-0.057932812720537186],"type":"VEC3"},{"bufferView":11,"componentType":5126,"count":1,"max":[0],"min":[0],"type":"SCALAR"},{"bufferView":12,"componentType":5126,"count":1,"max":[-0.06486435234546661,0.15395218133926392,-0.07476530224084854,0.9831081032752991],"min":[-0.06486435234546661,0.15395218133926392,-0.07476530224084854,0.9831081032752991],"type":"VEC4"},{"bufferView":13,"componentType":5126,"count":1,"max":[0],"min":[0],"type":"SCALAR"},{"bufferView":14,"componentType":5126,"count":1,"max":[-0.13197188079357147,0.8653905987739563,-0.032932814210653305],"min":[-0.13197188079357147,0.8653905987739563,-0.032932814210653305],"type":"VEC3"},{"bufferView":15,"componentType":5126,"count":1,"max":[0],"min":[0],"type":"SCALAR"},{"bufferView":16,"componentType":5126,"count":1,"max":[0,0,-0.008726535364985466,0.9999619126319885],"min":[0,0,-0.008726535364985466,0.9999619126319885],"type":"VEC4"},{"bufferView":17,"componentType":5126,"count":1,"max":[0],"min":[0],"type":"SCALAR"},{"bufferView":18,"componentType":5126,"count":1,"max":[0,0.8653905987739563,0],"min":[0,0.8653905987739563,0],"type":"VEC3"},{"bufferView":19,"componentType":5126,"count":1,"max":[0],"min":[0],"type":"SCALAR"},{"bufferView":20,"componentType":5126,"count":1,"max":[0.02181488461792469,0,0,0.9997619986534119],"min":[0.02181488461792469,0,0,0.9997619986534119],"type":"VEC4"},{"bufferView":21,"componentType":5126,"count":1,"max":[0],"min":[0],"type":"SCALAR"},{"bufferView":22,"componentType":5126,"count":1,"max":[-0.005967313889414072,-0.132140651345253,0.1149652749300003,0.984523355960846],"min":[-0.005967313889414072,-0.132140651345253,0.1149652749300003,0.984523355960846],"type":"VEC4"},{"bufferView":23,"componentType":5126,"count":1,"max":[0],"min":[0],"type":"SCALAR"},{"bufferView":24,"componentType":5126,"count":1,"max":[0.09000062197446823,-0.16389499604701996,0],"min":[0.09000062197446823,-0.16389499604701996,0],"type":"VEC3"},{"bufferView":25,"componentType":5126,"count":1,"max":[0],"min":[0],"type":"SCALAR"},{"bufferView":26,"componentType":5126,"count":1,"max":[-0.005967313889414072,0.132140651345253,-0.1149652749300003,0.984523355960846],"min":[-0.005967313889414072,0.132140651345253,-0.1149652749300003,0.984523355960846],"type":"VEC4"},{"bufferView":27,"componentType":5126,"count":1,"max":[0],"min":[0],"type":"SCALAR"},{"bufferView":28,"componentType":5126,"count":1,"max":[-0.09000062197446823,-0.16389499604701996,0],"min":[-0.09000062197446823,-0.16389499604701996,0],"type":"VEC3"},{"bufferView":29,"componentType":5126,"count":1,"max":[0],"min":[0],"type":"SCALAR"},{"bufferView":30,"componentType":5126,"count":1,"max":[-0.056796036660671234,-0.005110234022140503,-0.01883060112595558,0.9981951117515564],"min":[-0.056796036660671234,-0.005110234022140503,-0.01883060112595558,0.9981951117515564],"type":"VEC4"}],"materials":[{"pbrMetallicRoughness":{"metallicFactor":0,"roughnessFactor":1,"baseColorTexture":{"index":0}},"alphaMode":"MASK","alphaCutoff":0.05,"doubleSided":true}],"textures":[{"sampler":0,"source":0,"name":"four.om.png"}],"samplers":[{"magFilter":9728,"minFilter":9728,"wrapS":33071,"wrapT":33071}],"images":[{"mimeType":"image/png","uri":"data:image/png;base64,"}],"meshes":[{"primitives":[{"mode":4,"attributes":{"POSITION":0,"NORMAL":1,"TEXCOORD_0":2,"JOINTS_0":3,"WEIGHTS_0":4},"indices":5,"material":0}]}],"skins":[{"inverseBindMatrices":6,"joints":[81,3,2,1,0,7,6,5,4,80,79,78,9,8,43,25,24,23,22,21,20,11,10,13,12,15,14,17,16,19,18,42,41,40,39,38,36,27,26,29,28,31,30,33,32,35,34,37,77,59,58,57,56,55,54,45,44,47,46,49,48,51,50,53,52,76,75,74,73,72,70,61,60,63,62,65,64,67,66,69,68,71],"skeleton":81}],"animations":[{"name":"animation.gamabunta.new","samplers":[{"input":7,"output":8,"interpolation":"LINEAR"},{"input":9,"output":10,"interpolation":"LINEAR"},{"input":11,"output":12,"interpolation":"LINEAR"},{"input":13,"output":14,"interpolation":"LINEAR"},{"input":15,"output":16,"interpolation":"LINEAR"},{"input":17,"output":18,"interpolation":"LINEAR"},{"input":19,"output":20,"interpolation":"LINEAR"},{"input":21,"output":22,"interpolation":"LINEAR"},{"input":23,"output":24,"interpolation":"LINEAR"},{"input":25,"output":26,"interpolation":"LINEAR"},{"input":27,"output":28,"interpolation":"LINEAR"},{"input":29,"output":30,"interpolation":"LINEAR"}],"channels":[{"sampler":0,"target":{"node":7,"path":"rotation"}},{"sampler":1,"target":{"node":7,"path":"translation"}},{"sampler":2,"target":{"node":3,"path":"rotation"}},{"sampler":3,"target":{"node":3,"path":"translation"}},{"sampler":4,"target":{"node":80,"path":"rotation"}},{"sampler":5,"target":{"node":80,"path":"translation"}},{"sampler":6,"target":{"node":78,"path":"rotation"}},{"sampler":7,"target":{"node":41,"path":"rotation"}},{"sampler":8,"target":{"node":41,"path":"translation"}},{"sampler":9,"target":{"node":75,"path":"rotation"}},{"sampler":10,"target":{"node":75,"path":"translation"}},{"sampler":11,"target":{"node":9,"path":"rotation"}}]}]}