{"asset":{"version":"2.0","generator":"Blockbench 5.1.3 glTF exporter"},"scenes":[{"nodes":[23],"name":"blockbench_export"}],"scene":0,"nodes":[{"translation":[0,-1.0625,1.0625],"name":"RightFoot"},{"translation":[0.3750000000000001,-0.375,-0.75],"name":"RightCalf","children":[0]},{"translation":[0.908125,1.775,-1.25],"name":"RightLeg","children":[1]},{"translation":[0,-1.0625,1.0625],"name":"LeftFoot"},{"translation":[-0.3750000000000001,-0.375,-0.75],"name":"LeftCalf","children":[3]},{"translation":[-0.908125,1.775,-1.25],"name":"LeftLeg","children":[4]},{"translation":[1.01875,0.4375,1.3124999999999998],"name":"Katana"},{"rotation":[0.9469301294951057,0,0,0.3214394653031615],"translation":[0,0.25,-0.0625],"name":"Bainha","children":[6]},{"rotation":[-0.10886687485196457,0,0,0.9940563382223196],"translation":[0,-0.7875000000000001,-0.125],"name":"RightHand"},{"rotation":[-0.06540312923014306,0,0,0.9978589232386035],"translation":[0,-0.4374999999999999,-0.03125],"name":"RightForearm","children":[8]},{"translation":[0,-0.5625,-0.0625],"name":"RightArmo","children":[9]},{"rotation":[-0.10209393868113509,-0.4108832776518544,0.3495481751013422,0.835803704893657],"translation":[0.9875,-0.4624999999999999,-1.6062500000000002],"name":"RightArm","children":[10]},{"rotation":[-0.10886687485196457,0,0,0.9940563382223196],"translation":[0,-0.7875000000000001,-0.125],"name":"LeftHand"},{"rotation":[-0.06540312923014306,0,0,0.9978589232386035],"translation":[0,-0.4374999999999999,-0.03125],"name":"LeftForearm","children":[12]},{"translation":[0,-0.5625,-0.0625],"name":"LeftArmo","children":[13]},{"rotation":[-0.10209393868113509,0.4108832776518544,-0.3495481751013422,0.835803704893657],"translation":[-1.2,-0.4624999999999999,-1.6062500000000002],"name":"LeftArm","children":[14]},{"translation":[0,-2.2062500000000003,0],"name":"Cachimbo"},{"translation":[0,0.3679006250000001,0.33701625],"name":"Mount","children":[16]},{"translation":[0,1.1249999999999998,-1.1875],"name":"eyebrowns"},{"rotation":[-0.49999999999999994,0,0,0.8660254037844387],"translation":[-0.10625,-0.3124999999999998,-1.6625],"name":"Head","children":[17,18]},{"rotation":[0.48098876891938763,0,0,0.8767267557075077],"translation":[0.10625,1.025,0.6062500000000001],"name":"Body","children":[7,11,15,19]},{"translation":[0,1.025,-1.1687500000000002],"name":"Waist","children":[20]},{"name":"Root","children":[2,5,21]},{"translation":[0,0,1.584335],"name":"Root","mesh":0,"children":[22],"skin":0}],"bufferViews":[{"buffer":0,"byteOffset":0,"byteLength":14400,"target":34962,"byteStride":12},{"buffer":0,"byteOffset":14400,"byteLength":14400,"target":34962,"byteStride":12},{"buffer":0,"byteOffset":28800,"byteLength":9600,"target":34962,"byteStride":8},{"buffer":0,"byteOffset":38400,"byteLength":9600,"target":34962,"byteStride":8},{"buffer":0,"byteOffset":48000,"byteLength":19200,"target":34962,"byteStride":16},{"buffer":0,"byteOffset":67200,"byteLength":3600,"target":34963},{"buffer":0,"byteOffset":70800,"byteLength":1472},{"buffer":0,"byteOffset":72272,"byteLength":4},{"buffer":0,"byteOffset":72276,"byteLength":16},{"buffer":0,"byteOffset":72292,"byteLength":4},{"buffer":0,"byteOffset":72296,"byteLength":12},{"buffer":0,"byteOffset":72308,"byteLength":4},{"buffer":0,"byteOffset":72312,"byteLength":16},{"buffer":0,"byteOffset":72328,"byteLength":4},{"buffer":0,"byteOffset":72332,"byteLength":12},{"buffer":0,"byteOffset":72344,"byteLength":4},{"buffer":0,"byteOffset":72348,"byteLength":16},{"buffer":0,"byteOffset":72364,"byteLength":4},{"buffer":0,"byteOffset":72368,"byteLength":12},{"buffer":0,"byteOffset":72380,"byteLength":4},{"buffer":0,"byteOffset":72384,"byteLength":16},{"buffer":0,"byteOffset":72400,"byteLength":4},{"buffer":0,"byteOffset":72404,"byteLength":16},{"buffer":0,"byteOffset":72420,"byteLength":4},{"buffer":0,"byteOffset":72424,"byteLength":12},{"buffer":0,"byteOffset":72436,"byteLength":4},{"buffer":0,"byteOffset":72440,"byteLength":16},{"buffer":0,"byteOffset":72456,"byteLength":4},{"buffer":0,"byteOffset":72460,"byteLength":12},{"buffer":0,"byteOffset":72472,"byteLength":4},{"buffer":0,"byteOffset":72476,"byteLength":16}],"buffers":[{"byteLength":72492,"uri":"data:application/octet-stream;base64,"}],"accessors":[{"bufferView":0,"componentType":5126,"count":1200,"max":[2.6039063930511475,4.8316192626953125,0.41970300674438477],"min":[-2.6039063930511475,-1.1102230246251565e-16,-4.007487773895264],"type":"VEC3"},{"bufferView":1,"componentType":5126,"count":1200,"max":[1,1,0.9990482330322266],"min":[-1,-1,-0.9990482330322266],"type":"VEC3"},{"bufferView":2,"componentType":5126,"count":1200,"max":[0.86322021484375,0.87493896484375],"min":[0,0.00006102025508880615],"type":"VEC2"},{"bufferView":3,"componentType":5123,"count":1200,"max":[0,22,0,0],"min":[0,1,0,0],"type":"VEC4"},{"bufferView":4,"componentType":5126,"count":1200,"max":[0,1,0,0],"min":[0,1,0,0],"type":"VEC4"},{"bufferView":5,"componentType":5123,"count":1800,"max":[1199],"min":[0],"type":"SCALAR"},{"bufferView":6,"componentType":5126,"count":23,"max":[1,0.5004099607467651,0.8836337327957153,0,0.16004928946495056,1,0.3420201539993286,0,0.8942456245422363,0.8433914184570312,1,0,1.671576976776123,1.9703694581985474,3.288778305053711,1],"min":[0.4179820120334625,-0.5004099607467651,-0.8836337327957153,0,-0.16004928946495056,-0.9396926164627075,-0.8433914184570312,0,-0.8942456245422363,-0.3420201539993286,-0.9396926164627075,0,-1.671576976776123,-4.481101989746094,-2.439612627029419,1],"type":"MAT4"},{"bufferView":7,"componentType":5126,"count":1,"max":[0],"min":[0],"type":"SCALAR"},{"bufferView":8,"componentType":5126,"count":1,"max":[-0.008440157398581505,-0.02626962773501873,0.028423570096492767,0.9992150664329529],"min":[-0.008440157398581505,-0.02626962773501873,0.028423570096492767,0.9992150664329529],"type":"VEC4"},{"bufferView":9,"componentType":5126,"count":1,"max":[0],"min":[0],"type":"SCALAR"},{"bufferView":10,"componentType":5126,"count":1,"max":[0.9331250190734863,1.774999976158142,-1.290624976158142],"min":[0.9331250190734863,1.774999976158142,-1.290624976158142],"type":"VEC3"},{"bufferView":11,"componentType":5126,"count":1,"max":[0],"min":[0],"type":"SCALAR"},{"bufferView":12,"componentType":5126,"count":1,"max":[-0.06820736825466156,0.15250052511692047,-0.053301118314266205,0.9845051169395447],"min":[-0.06820736825466156,0.15250052511692047,-0.053301118314266205,0.9845051169395447],"type":"VEC4"},{"bufferView":13,"componentType":5126,"count":1,"max":[0],"min":[0],"type":"SCALAR"},{"bufferView":14,"componentType":5126,"count":1,"max":[-0.9362499713897705,1.774999976158142,-1.265625],"min":[-0.9362499713897705,1.774999976158142,-1.265625],"type":"VEC3"},{"bufferView":15,"componentType":5126,"count":1,"max":[0],"min":[0],"type":"SCALAR"},{"bufferView":16,"componentType":5126,"count":1,"max":[0,0,-0.008726535364985466,0.9999619126319885],"min":[0,0,-0.008726535364985466,0.9999619126319885],"type":"VEC4"},{"bufferView":17,"componentType":5126,"count":1,"max":[0],"min":[0],"type":"SCALAR"},{"bufferView":18,"componentType":5126,"count":1,"max":[0,1.024999976158142,-1.1687500476837158],"min":[0,1.024999976158142,-1.1687500476837158],"type":"VEC3"},{"bufferView":19,"componentType":5126,"count":1,"max":[0],"min":[0],"type":"SCALAR"},{"bufferView":20,"componentType":5126,"count":1,"max":[0.5,0,0,0.8660253882408142],"min":[0.5,0,0,0.8660253882408142],"type":"VEC4"},{"bufferView":21,"componentType":5126,"count":1,"max":[0],"min":[0],"type":"SCALAR"},{"bufferView":22,"componentType":5126,"count":1,"max":[-0.023180460557341576,-0.5121791362762451,0.3260355293750763,0.7942518591880798],"min":[-0.023180460557341576,-0.5121791362762451,0.3260355293750763,0.7942518591880798],"type":"VEC4"},{"bufferView":23,"componentType":5126,"count":1,"max":[0],"min":[0],"type":"SCALAR"},{"bufferView":24,"componentType":5126,"count":1,"max":[0.987500011920929,-0.515625,-1.6062500476837158],"min":[0.987500011920929,-0.515625,-1.6062500476837158],"type":"VEC3"},{"bufferView":25,"componentType":5126,"count":1,"max":[0],"min":[0],"type":"SCALAR"},{"bufferView":26,"componentType":5126,"count":1,"max":[-0.023180460557341576,0.5121791362762451,-0.3260355293750763,0.7942518591880798],"min":[-0.023180460557341576,0.5121791362762451,-0.3260355293750763,0.7942518591880798],"type":"VEC4"},{"bufferView":27,"componentType":5126,"count":1,"max":[0],"min":[0],"type":"SCALAR"},{"bufferView":28,"componentType":5126,"count":1,"max":[-1.2000000476837158,-0.515625,-1.6062500476837158],"min":[-1.2000000476837158,-0.515625,-1.6062500476837158],"type":"VEC3"},{"bufferView":29,"componentType":5126,"count":1,"max":[0],"min":[0],"type":"SCALAR"},{"bufferView":30,"componentType":5126,"count":1,"max":[-0.5482843518257141,0.004989708308130503,-0.018862895667552948,0.836064338684082],"min":[-0.5482843518257141,0.004989708308130503,-0.018862895667552948,0.836064338684082],"type":"VEC4"}],"materials":[{"pbrMetallicRoughness":{"metallicFactor":0,"roughnessFactor":1,"baseColorTexture":{"index":0}},"alphaMode":"MASK","alphaCutoff":0.05,"doubleSided":true}],"textures":[{"sampler":0,"source":0,"name":"gamabunta.png"}],"samplers":[{"magFilter":9728,"minFilter":9728,"wrapS":33071,"wrapT":33071}],"images":[{"mimeType":"image/png","uri":"data:image/png;base64,"}],"meshes":[{"primitives":[{"mode":4,"attributes":{"POSITION":0,"NORMAL":1,"TEXCOORD_0":2,"JOINTS_0":3,"WEIGHTS_0":4},"indices":5,"material":0}]}],"skins":[{"inverseBindMatrices":6,"joints":[22,2,1,0,5,4,3,21,20,7,6,11,10,9,8,15,14,13,12,19,17,16,18],"skeleton":22}],"animations":[{"name":"animation.gamabunta.new","samplers":[{"input":7,"output":8,"interpolation":"LINEAR"},{"input":9,"output":10,"interpolation":"LINEAR"},{"input":11,"output":12,"interpolation":"LINEAR"},{"input":13,"output":14,"interpolation":"LINEAR"},{"input":15,"output":16,"interpolation":"LINEAR"},{"input":17,"output":18,"interpolation":"LINEAR"},{"input":19,"output":20,"interpolation":"LINEAR"},{"input":21,"output":22,"interpolation":"LINEAR"},{"input":23,"output":24,"interpolation":"LINEAR"},{"input":25,"output":26,"interpolation":"LINEAR"},{"input":27,"output":28,"interpolation":"LINEAR"},{"input":29,"output":30,"interpolation":"LINEAR"}],"channels":[{"sampler":0,"target":{"node":2,"path":"rotation"}},{"sampler":1,"target":{"node":2,"path":"translation"}},{"sampler":2,"target":{"node":5,"path":"rotation"}},{"sampler":3,"target":{"node":5,"path":"translation"}},{"sampler":4,"target":{"node":21,"path":"rotation"}},{"sampler":5,"target":{"node":21,"path":"translation"}},{"sampler":6,"target":{"node":20,"path":"rotation"}},{"sampler":7,"target":{"node":11,"path":"rotation"}},{"sampler":8,"target":{"node":11,"path":"translation"}},{"sampler":9,"target":{"node":15,"path":"rotation"}},{"sampler":10,"target":{"node":15,"path":"translation"}},{"sampler":11,"target":{"node":19,"path":"rotation"}}]}]}