{"asset":{"version":"2.0","generator":"Blockbench 5.1.3 glTF exporter"},"scenes":[{"nodes":[4],"name":"blockbench_export"}],"scene":0,"nodes":[{"translation":[0,0,0.15800000000000003],"name":"face"},{"rotation":[0.7071067811865475,0,0,0.7071067811865476],"translation":[0,-0.11850000000000005,0],"name":"face2"},{"rotation":[-0.7071067811865475,0,0,0.7071067811865476],"translation":[0,-0.11850000000000005,0.009875000000000002],"name":"face3"},{"rotation":[0.7071067811865475,0,0,0.7071067811865476],"name":"Fruit","children":[0,1,2]},{"rotation":[0.7071067811865475,0,0,0.7071067811865476],"translation":[0,2.765,0],"name":"Fruit","mesh":0,"children":[3],"skin":0}],"bufferViews":[{"buffer":0,"byteOffset":0,"byteLength":23328,"target":34962,"byteStride":12},{"buffer":0,"byteOffset":23328,"byteLength":23328,"target":34962,"byteStride":12},{"buffer":0,"byteOffset":46656,"byteLength":15552,"target":34962,"byteStride":8},{"buffer":0,"byteOffset":62208,"byteLength":15552,"target":34962,"byteStride":8},{"buffer":0,"byteOffset":77760,"byteLength":31104,"target":34962,"byteStride":16},{"buffer":0,"byteOffset":108864,"byteLength":5832,"target":34963},{"buffer":0,"byteOffset":114696,"byteLength":256},{"buffer":0,"byteOffset":114952,"byteLength":4},{"buffer":0,"byteOffset":114956,"byteLength":16},{"buffer":0,"byteOffset":114972,"byteLength":4},{"buffer":0,"byteOffset":114976,"byteLength":12}],"buffers":[{"byteLength":114988,"uri":"data:application/octet-stream;base64,"}],"accessors":[{"bufferView":0,"componentType":5126,"count":1944,"max":[0.8754618763923645,0.8754618763923645,2.378061294555664],"min":[-0.8754618763923645,-0.8754618763923645,0.265625],"type":"VEC3"},{"bufferView":1,"componentType":5126,"count":1944,"max":[1,1,1],"min":[-1,-1,-1],"type":"VEC3"},{"bufferView":2,"componentType":5126,"count":1944,"max":[0.5625,0.53125],"min":[0,0],"type":"VEC2"},{"bufferView":3,"componentType":5123,"count":1944,"max":[0,3,0,0],"min":[0,0,0,0],"type":"VEC4"},{"bufferView":4,"componentType":5126,"count":1944,"max":[0,1,0,0],"min":[0,1,0,0],"type":"VEC4"},{"bufferView":5,"componentType":5123,"count":2916,"max":[1943],"min":[0],"type":"SCALAR"},{"bufferView":6,"componentType":5126,"count":4,"max":[1,0,0,0,0,1,0,0,0,1,1,0,0,0.009875000454485416,0.1185000017285347,1],"min":[1,0,0,0,0,-1,-1,0,0,0,-1,0,0,0,-0.15800000727176666,1],"type":"MAT4"},{"bufferView":7,"componentType":5126,"count":1,"max":[0],"min":[0],"type":"SCALAR"},{"bufferView":8,"componentType":5126,"count":1,"max":[0.7066760063171387,0.024677671492099762,0.024677671492099762,0.7066760063171387],"min":[0.7066760063171387,0.024677671492099762,0.024677671492099762,0.7066760063171387],"type":"VEC4"},{"bufferView":9,"componentType":5126,"count":1,"max":[0],"min":[0],"type":"SCALAR"},{"bufferView":10,"componentType":5126,"count":1,"max":[0,2.765000104904175,0],"min":[0,2.765000104904175,0],"type":"VEC3"}],"materials":[{"pbrMetallicRoughness":{"metallicFactor":0,"roughnessFactor":1,"baseColorTexture":{"index":0}},"alphaMode":"MASK","alphaCutoff":0.05,"doubleSided":true}],"textures":[{"sampler":0,"source":0,"name":"light"}],"samplers":[{"magFilter":9728,"minFilter":9728,"wrapS":33071,"wrapT":33071}],"images":[{"mimeType":"image/png","uri":"data:image/png;base64,"}],"meshes":[{"primitives":[{"mode":4,"attributes":{"POSITION":0,"NORMAL":1,"TEXCOORD_0":2,"JOINTS_0":3,"WEIGHTS_0":4},"indices":5,"material":0}]}],"skins":[{"inverseBindMatrices":6,"joints":[3,0,1,2],"skeleton":3}],"animations":[{"name":"animation.fruit.new","samplers":[{"input":7,"output":8,"interpolation":"LINEAR"},{"input":9,"output":10,"interpolation":"LINEAR"}],"channels":[{"sampler":0,"target":{"node":3,"path":"rotation"}},{"sampler":1,"target":{"node":3,"path":"translation"}}]}]}