{"asset":{"version":"2.0","generator":"Blockbench 5.1.3 glTF exporter"},"scenes":[{"nodes":[1,18],"name":"blockbench_export"}],"scene":0,"nodes":[{"name":"bb_main"},{"translation":[0,-5.3125,0],"name":"bb_main","children":[0],"skin":0},{"translation":[-0.060981250000000015,0.002076875000000089,1.4195856249999994],"name":"Tail6"},{"translation":[0,0.335375,0.42525000000000013],"name":"Tail5","children":[2]},{"translation":[0,-0.125,0.17525000000000013],"name":"Tail4","children":[3]},{"translation":[0,-0.10212500000000002,0.8002499999999999],"name":"Tail3","children":[4]},{"translation":[0,0.125,0.573125],"name":"Tail2","children":[5]},{"translation":[-0.102125,0.510625,0.86275],"name":"Tail","children":[6]},{"translation":[0,2.103775,-0.7353],"name":"Mouth"},{"translation":[0,0.45271875,0.0625],"name":"Head","children":[8]},{"translation":[-0.29622187499999997,-0.9408012499999999,-0.19027937500000003],"name":"LeftForearm"},{"rotation":[0.05559971156485379,0.010168206370642063,-0.041279100023161146,0.9975476507688177],"translation":[-0.74040625,1.83559375,-0.22978125],"name":"LeftArm","children":[10]},{"translation":[0.29622187499999997,-0.9408012499999999,-0.19027937500000003],"name":"RightForearm"},{"rotation":[0.05559971156485379,-0.010168206370642063,0.041279100023161146,0.9975476507688177],"translation":[0.74040625,1.83559375,-0.22978125],"name":"RightArm","children":[12]},{"name":"Body","children":[7,9,11,13]},{"rotation":[0,-0.19509032201612825,0,0.9807852804032304],"translation":[-1,0.875,0.243875],"name":"LeftLeg"},{"rotation":[0,0.19509032201612825,0,0.9807852804032304],"translation":[1,0.875,0.243875],"name":"RightLeg"},{"name":"shukaku","children":[14,15,16]},{"name":"shukaku","mesh":0,"children":[17],"skin":1}],"bufferViews":[{"buffer":0,"byteOffset":0,"byteLength":43200,"target":34962,"byteStride":12},{"buffer":0,"byteOffset":43200,"byteLength":43200,"target":34962,"byteStride":12},{"buffer":0,"byteOffset":86400,"byteLength":28800,"target":34962,"byteStride":8},{"buffer":0,"byteOffset":115200,"byteLength":28800,"target":34962,"byteStride":8},{"buffer":0,"byteOffset":144000,"byteLength":57600,"target":34962,"byteStride":16},{"buffer":0,"byteOffset":201600,"byteLength":10800,"target":34963},{"buffer":0,"byteOffset":212400,"byteLength":64},{"buffer":0,"byteOffset":212464,"byteLength":1024},{"buffer":0,"byteOffset":213488,"byteLength":12},{"buffer":0,"byteOffset":213500,"byteLength":48},{"buffer":0,"byteOffset":213548,"byteLength":156},{"buffer":0,"byteOffset":213704,"byteLength":624},{"buffer":0,"byteOffset":214328,"byteLength":8},{"buffer":0,"byteOffset":214336,"byteLength":32},{"buffer":0,"byteOffset":214368,"byteLength":156},{"buffer":0,"byteOffset":214524,"byteLength":624},{"buffer":0,"byteOffset":215148,"byteLength":8},{"buffer":0,"byteOffset":215156,"byteLength":32},{"buffer":0,"byteOffset":215188,"byteLength":156},{"buffer":0,"byteOffset":215344,"byteLength":624},{"buffer":0,"byteOffset":215968,"byteLength":4},{"buffer":0,"byteOffset":215972,"byteLength":12},{"buffer":0,"byteOffset":215984,"byteLength":156},{"buffer":0,"byteOffset":216140,"byteLength":624},{"buffer":0,"byteOffset":216764,"byteLength":8},{"buffer":0,"byteOffset":216772,"byteLength":24},{"buffer":0,"byteOffset":216796,"byteLength":12},{"buffer":0,"byteOffset":216808,"byteLength":48},{"buffer":0,"byteOffset":216856,"byteLength":12},{"buffer":0,"byteOffset":216868,"byteLength":48},{"buffer":0,"byteOffset":216916,"byteLength":12},{"buffer":0,"byteOffset":216928,"byteLength":48},{"buffer":0,"byteOffset":216976,"byteLength":12},{"buffer":0,"byteOffset":216988,"byteLength":48},{"buffer":0,"byteOffset":217036,"byteLength":12},{"buffer":0,"byteOffset":217048,"byteLength":48}],"buffers":[{"byteLength":217096,"uri":"data:application/octet-stream;base64,"}],"accessors":[{"bufferView":0,"componentType":5126,"count":3600,"max":[1.797385573387146,3.342606782913208,5.676534652709961],"min":[-1.797385573387146,-0.18709594011306763,-1.628099799156189],"type":"VEC3"},{"bufferView":1,"componentType":5126,"count":3600,"max":[1,1,1],"min":[-1,-1,-1],"type":"VEC3"},{"bufferView":2,"componentType":5126,"count":3600,"max":[0.89837646484375,0.86712646484375],"min":[0.00006103515625,0.00006102025508880615],"type":"VEC2"},{"bufferView":3,"componentType":5123,"count":3600,"max":[0,15,0,0],"min":[0,1,0,0],"type":"VEC4"},{"bufferView":4,"componentType":5126,"count":3600,"max":[0,1,0,0],"min":[0,1,0,0],"type":"VEC4"},{"bufferView":5,"componentType":5123,"count":5400,"max":[3599],"min":[0],"type":"SCALAR"},{"bufferView":6,"componentType":5126,"count":1,"max":[1,0,0,0,0,1,0,0,0,0,1,0,0,0,0,1],"min":[1,0,0,0,0,1,0,0,0,0,1,0,0,0,0,1],"type":"MAT4"},{"bufferView":7,"componentType":5126,"count":16,"max":[1,0.08348643779754639,0.3826834261417389,0,0.08122503757476807,1,0,0,0.3826834261417389,0.11008725315332413,1,0,1.1773316860198975,0,0.6728000044822693,1],"min":[0.9238795042037964,-0.08348643779754639,-0.3826834261417389,0,-0.08122503757476807,0.9904094338417053,-0.11176618933677673,0,-0.3826834261417389,0,0.9238795042037964,0,-1.1773316860198975,-2.5564937591552734,-4.256210803985596,1],"type":"MAT4"},{"bufferView":8,"componentType":5126,"count":3,"max":[2],"min":[0],"type":"SCALAR"},{"bufferView":9,"componentType":5126,"count":3,"max":[0,0,0,1],"min":[-0.02181488461792469,0,0,0.9997619986534119],"type":"VEC4"},{"bufferView":10,"componentType":5126,"count":39,"max":[2],"min":[0],"type":"SCALAR"},{"bufferView":11,"componentType":5126,"count":39,"max":[-0.24684013426303864,0.2904594838619232,0.06151764094829559,0.95633465051651],"min":[-0.29265719652175903,-0.2295869141817093,-0.07782836258411407,0.9212198257446289],"type":"VEC4"},{"bufferView":12,"componentType":5126,"count":2,"max":[2],"min":[0],"type":"SCALAR"},{"bufferView":13,"componentType":5126,"count":2,"max":[-0.237685889005661,0,0,0.9713420867919922],"min":[-0.237685889005661,0,0,0.9713420867919922],"type":"VEC4"},{"bufferView":14,"componentType":5126,"count":39,"max":[2],"min":[0],"type":"SCALAR"},{"bufferView":15,"componentType":5126,"count":39,"max":[0.04361938685178757,0,0,0.9999946355819702],"min":[-0.15212339162826538,0,0,0.9883615374565125],"type":"VEC4"},{"bufferView":16,"componentType":5126,"count":2,"max":[2],"min":[0],"type":"SCALAR"},{"bufferView":17,"componentType":5126,"count":2,"max":[-0.19509032368659973,0,0,0.9807852506637573],"min":[-0.19509032368659973,0,0,0.9807852506637573],"type":"VEC4"},{"bufferView":18,"componentType":5126,"count":39,"max":[2],"min":[0],"type":"SCALAR"},{"bufferView":19,"componentType":5126,"count":39,"max":[0.04357790946960449,0.04098884388804436,0.014918681234121323,0.9995447993278503],"min":[-0.10886687785387039,0,0,0.9940563440322876],"type":"VEC4"},{"bufferView":20,"componentType":5126,"count":1,"max":[0],"min":[0],"type":"SCALAR"},{"bufferView":21,"componentType":5126,"count":1,"max":[0,0.1978749930858612,0.42524999380111694],"min":[0,0.1978749930858612,0.42524999380111694],"type":"VEC3"},{"bufferView":22,"componentType":5126,"count":39,"max":[2],"min":[0],"type":"SCALAR"},{"bufferView":23,"componentType":5126,"count":39,"max":[0.27599644660949707,0.13442550599575043,0.12439898401498795,0.9944238066673279],"min":[-0.11878516525030136,-0.02527078427374363,0.08248455077409744,0.9437625408172607],"type":"VEC4"},{"bufferView":24,"componentType":5126,"count":2,"max":[2],"min":[0],"type":"SCALAR"},{"bufferView":25,"componentType":5126,"count":2,"max":[-0.060981251299381256,0.06457687169313431,1.1695855855941772],"min":[-0.060981251299381256,0.06457687169313431,1.1695855855941772],"type":"VEC3"},{"bufferView":26,"componentType":5126,"count":3,"max":[2],"min":[0],"type":"SCALAR"},{"bufferView":27,"componentType":5126,"count":3,"max":[0,0,0,1],"min":[-0.02181488461792469,0,0,0.9997619986534119],"type":"VEC4"},{"bufferView":28,"componentType":5126,"count":3,"max":[2],"min":[0],"type":"SCALAR"},{"bufferView":29,"componentType":5126,"count":3,"max":[0.055990323424339294,0.010168205946683884,-0.04127909988164902,0.9975476264953613],"min":[0.05559971183538437,0.0077333031222224236,-0.08475223183631897,0.9947976469993591],"type":"VEC4"},{"bufferView":30,"componentType":5126,"count":3,"max":[2],"min":[0],"type":"SCALAR"},{"bufferView":31,"componentType":5126,"count":3,"max":[0,0,0.06540312618017197,1],"min":[0,0,0,0.9978589415550232],"type":"VEC4"},{"bufferView":32,"componentType":5126,"count":3,"max":[2],"min":[0],"type":"SCALAR"},{"bufferView":33,"componentType":5126,"count":3,"max":[0.055990323424339294,-0.0077333031222224236,0.08475223183631897,0.9975476264953613],"min":[0.05559971183538437,-0.010168205946683884,0.04127909988164902,0.9947976469993591],"type":"VEC4"},{"bufferView":34,"componentType":5126,"count":3,"max":[2],"min":[0],"type":"SCALAR"},{"bufferView":35,"componentType":5126,"count":3,"max":[0,0,0,1],"min":[0,0,-0.06540312618017197,0.9978589415550232],"type":"VEC4"}],"materials":[{"pbrMetallicRoughness":{"metallicFactor":0,"roughnessFactor":1,"baseColorTexture":{"index":0}},"alphaMode":"MASK","alphaCutoff":0.05,"doubleSided":true}],"textures":[{"sampler":0,"source":0}],"samplers":[{"magFilter":9728,"minFilter":9728,"wrapS":33071,"wrapT":33071}],"images":[{"mimeType":"image/png","uri":"data:image/png;base64,"}],"meshes":[{"primitives":[{"mode":4,"attributes":{"POSITION":0,"NORMAL":1,"TEXCOORD_0":2,"JOINTS_0":3,"WEIGHTS_0":4},"indices":5,"material":0}]}],"skins":[{"inverseBindMatrices":6,"joints":[0],"skeleton":0},{"inverseBindMatrices":7,"joints":[17,14,7,6,5,4,3,2,9,8,11,10,13,12,15,16],"skeleton":17}],"animations":[{"name":"animation.shukaku.idle","samplers":[{"input":8,"output":9,"interpolation":"LINEAR"},{"input":10,"output":11,"interpolation":"LINEAR"},{"input":12,"output":13,"interpolation":"LINEAR"},{"input":14,"output":15,"interpolation":"LINEAR"},{"input":16,"output":17,"interpolation":"LINEAR"},{"input":18,"output":19,"interpolation":"LINEAR"},{"input":20,"output":21,"interpolation":"LINEAR"},{"input":22,"output":23,"interpolation":"LINEAR"},{"input":24,"output":25,"interpolation":"LINEAR"},{"input":26,"output":27,"interpolation":"LINEAR"},{"input":28,"output":29,"interpolation":"LINEAR"},{"input":30,"output":31,"interpolation":"LINEAR"},{"input":32,"output":33,"interpolation":"LINEAR"},{"input":34,"output":35,"interpolation":"LINEAR"}],"channels":[{"sampler":0,"target":{"node":14,"path":"rotation"}},{"sampler":1,"target":{"node":7,"path":"rotation"}},{"sampler":2,"target":{"node":6,"path":"rotation"}},{"sampler":3,"target":{"node":5,"path":"rotation"}},{"sampler":4,"target":{"node":4,"path":"rotation"}},{"sampler":5,"target":{"node":3,"path":"rotation"}},{"sampler":6,"target":{"node":3,"path":"translation"}},{"sampler":7,"target":{"node":2,"path":"rotation"}},{"sampler":8,"target":{"node":2,"path":"translation"}},{"sampler":9,"target":{"node":8,"path":"rotation"}},{"sampler":10,"target":{"node":11,"path":"rotation"}},{"sampler":11,"target":{"node":10,"path":"rotation"}},{"sampler":12,"target":{"node":13,"path":"rotation"}},{"sampler":13,"target":{"node":12,"path":"rotation"}}]}]}