{"asset":{"version":"2.0","generator":"Blockbench 5.1.3 glTF exporter"},"scenes":[{"nodes":[27],"name":"blockbench_export"}],"scene":0,"nodes":[{"rotation":[0,-0.01308959557134444,0,0.999914327574007],"translation":[0.338025,-0.42880937500000016,0.03430375000000002],"name":"rightfinger6"},{"rotation":[0,0.01308959557134444,0,0.999914327574007],"translation":[-0.338025625,-0.42880937500000016,0.03430375000000002],"name":"rightfinger23"},{"rotation":[0,0.004363309284746571,0,0.9999904807207345],"translation":[0,-0.42880937500000016,0.03430375000000002],"name":"rightfinger33"},{"rotation":[0,-0.21217767215644626,0,0.9772311064626789],"translation":[0.42378687500000023,-0.42880937500000016,0.08233625],"name":"rightfinger43"},{"rotation":[0.1765538725010407,0.23233394032681232,0.9239612047475888,0.24727588317198998],"translation":[-0.211958125,-0.7793256250000002,0.15045562499999998],"name":"rightfinger53"},{"rotation":[-0.6427876096865393,0,0,0.766044443118978],"translation":[0,-0.20680687499999983,-0.9605325],"name":"rightfingers3","children":[0,1,2,3,4]},{"rotation":[-0.030379262139250796,-0.6838097450276742,-0.35510951814611535,0.6366934609049283],"translation":[0.09017874999999997,-2.598844375,0.10652],"name":"righthand3","children":[5]},{"rotation":[0.5959660713663493,-0.05364559148701879,-0.33504549505708814,0.7277988104800103],"translation":[0,-2.0880325,0],"name":"rightforearm3","children":[6]},{"rotation":[0,-0.07845909572784494,0,0.996917333733128],"translation":[0.4845543750000001,-0.48455437499999987,0.038763749999999986],"name":"leftfinger63"},{"rotation":[0,0.01308959557134444,0,0.999914327574007],"translation":[-0.48455437499999987,-0.48455437499999987,0.038763749999999986],"name":"leftfinger23"},{"rotation":[0,0.004363309284746571,0,0.9999904807207345],"translation":[0,-0.48455437499999987,0.038763749999999986],"name":"leftfinger33"},{"rotation":[-0.1431748824415318,-0.33398387781807654,-0.05140503539284928,0.9302221480548146],"translation":[0.5814656250000001,-0.48455437499999987,0.57177375],"name":"leftfinger43"},{"rotation":[-0.11551406647987032,0.46163112355736324,0.060774890380402596,0.8774164455420815],"translation":[-0.5814656249999999,-0.43609875,0.7171406250000001],"name":"leftfinger53"},{"rotation":[-0.13052619222005157,0,0,0.9914448613738104],"translation":[0,-0.09691125,-1.085401875],"name":"leftfingers3","children":[8,9,10,11,12]},{"rotation":[0.42151647023649463,-0.6636009822481465,-0.5840429576109287,-0.20211735537489214],"translation":[-0.394003125,-2.144924375,0.16704249999999998],"name":"lefthand2","children":[13]},{"rotation":[0.4009647782843979,-0.03508545005018977,0.22518989734073902,0.8872912531439643],"translation":[0,-1.9367256250000002,0.18156812500000002],"name":"rightfofrontm3","children":[14]},{"rotation":[0.20460340738907867,0.19251779867482535,0.4443051604291482,0.8506863507158245],"translation":[1.54332875,2.82519875,0.365315],"name":"RightArm","children":[7,15]},{"rotation":[0,0.01308959557134444,0,0.999914327574007],"translation":[-0.338025,-0.42880937500000016,0.03430437499999994],"name":"rightfinger63"},{"rotation":[0,-0.01308959557134444,0,0.999914327574007],"translation":[0.338025625,-0.42880937500000016,0.03430437499999994],"name":"rightfinger73"},{"rotation":[0,-0.004363309284746571,0,0.9999904807207345],"translation":[0,-0.42880937500000016,0.03430437499999994],"name":"rightfinger83"},{"rotation":[0,0.21217767215644626,0,0.9772311064626789],"translation":[-0.423786875,-0.42880937500000016,0.08233625],"name":"rightfinger93"},{"rotation":[0.12573581704364856,-0.2884930929018774,-0.9218235915708446,0.2262819163868466],"translation":[0.211958125,-0.779325,0.15045624999999996],"name":"rightfinger103"},{"rotation":[-0.6427876096865393,0,0,0.766044443118978],"translation":[0,-0.2068074999999998,-0.9605325],"name":"rightfingers23","children":[17,18,19,20,21]},{"rotation":[-0.051536031596984756,-0.8033758390759621,0.07028627846977391,-0.5890595366302951],"translation":[0.48478625,-1.9028331250000001,-0.214250625],"name":"lefthand3","children":[22]},{"rotation":[0.5808691713651319,0.14368161911657898,0.2204308398120482,0.7702965941411],"translation":[0,-2.0880325,0],"name":"leftforearm3","children":[23]},{"rotation":[0.1635033948789429,-0.17893372191723173,-0.45448668041689155,0.8571413071060929],"translation":[-1.876203125,2.82519875,0.365315],"name":"LeftArm","children":[24]},{"name":"waist","children":[16,25]},{"name":"waist","mesh":0,"children":[26],"skin":0}],"bufferViews":[{"buffer":0,"byteOffset":0,"byteLength":29088,"target":34962,"byteStride":12},{"buffer":0,"byteOffset":29088,"byteLength":29088,"target":34962,"byteStride":12},{"buffer":0,"byteOffset":58176,"byteLength":19392,"target":34962,"byteStride":8},{"buffer":0,"byteOffset":77568,"byteLength":19392,"target":34962,"byteStride":8},{"buffer":0,"byteOffset":96960,"byteLength":38784,"target":34962,"byteStride":16},{"buffer":0,"byteOffset":135744,"byteLength":7272,"target":34963},{"buffer":0,"byteOffset":143016,"byteLength":1728},{"buffer":0,"byteOffset":144744,"byteLength":4},{"buffer":0,"byteOffset":144748,"byteLength":16},{"buffer":0,"byteOffset":144764,"byteLength":4},{"buffer":0,"byteOffset":144768,"byteLength":12},{"buffer":0,"byteOffset":144780,"byteLength":4},{"buffer":0,"byteOffset":144784,"byteLength":16},{"buffer":0,"byteOffset":144800,"byteLength":4},{"buffer":0,"byteOffset":144804,"byteLength":12},{"buffer":0,"byteOffset":144816,"byteLength":4},{"buffer":0,"byteOffset":144820,"byteLength":16},{"buffer":0,"byteOffset":144836,"byteLength":4},{"buffer":0,"byteOffset":144840,"byteLength":12}],"buffers":[{"byteLength":144852,"uri":"data:application/octet-stream;base64,"}],"accessors":[{"bufferView":0,"componentType":5126,"count":2424,"max":[4.887579441070557,5.921212673187256,2.0501747131347656],"min":[-4.171242713928223,-0.4316551983356476,-4.3590874671936035],"type":"VEC3"},{"bufferView":1,"componentType":5126,"count":2424,"max":[1,1,1],"min":[-1,-1,-1],"type":"VEC3"},{"bufferView":2,"componentType":5126,"count":2424,"max":[0.75,0.7060546875],"min":[0,0],"type":"VEC2"},{"bufferView":3,"componentType":5123,"count":2424,"max":[0,26,0,0],"min":[0,0,0,0],"type":"VEC4"},{"bufferView":4,"componentType":5126,"count":2424,"max":[0,1,0,0],"min":[0,1,0,0],"type":"VEC4"},{"bufferView":5,"componentType":5123,"count":3636,"max":[2423],"min":[0],"type":"SCALAR"},{"bufferView":6,"componentType":5126,"count":27,"max":[1,0.9866732954978943,0.95576411485672,0,0.9751881957054138,1,0.48173654079437256,0,0.3912293016910553,0.9723547101020813,1,0,3.8318514823913574,2.783324956893921,5.4649200439453125,1],"min":[-0.8993602991104126,-0.9758669137954712,-0.7733645439147949,0,-0.9595803022384644,-0.9502339363098145,-0.8823950290679932,0,-0.9364891052246094,-0.9023752808570862,-0.16659756004810333,0,-3.1245782375335693,-4.105466365814209,-1.8530162572860718,1],"type":"MAT4"},{"bufferView":7,"componentType":5126,"count":1,"max":[0],"min":[0],"type":"SCALAR"},{"bufferView":8,"componentType":5126,"count":1,"max":[0,0,-0.008726535364985466,0.9999619126319885],"min":[0,0,-0.008726535364985466,0.9999619126319885],"type":"VEC4"},{"bufferView":9,"componentType":5126,"count":1,"max":[0],"min":[0],"type":"SCALAR"},{"bufferView":10,"componentType":5126,"count":1,"max":[0,0,0],"min":[0,0,0],"type":"VEC3"},{"bufferView":11,"componentType":5126,"count":1,"max":[0],"min":[0],"type":"SCALAR"},{"bufferView":12,"componentType":5126,"count":1,"max":[0.23221944272518158,0.11102712899446487,0.43046876788139343,0.8651264309883118],"min":[0.23221944272518158,0.11102712899446487,0.43046876788139343,0.8651264309883118],"type":"VEC4"},{"bufferView":13,"componentType":5126,"count":1,"max":[0],"min":[0],"type":"SCALAR"},{"bufferView":14,"componentType":5126,"count":1,"max":[1.5433287620544434,2.772073745727539,0.3653149902820587],"min":[1.5433287620544434,2.772073745727539,0.3653149902820587],"type":"VEC3"},{"bufferView":15,"componentType":5126,"count":1,"max":[0],"min":[0],"type":"SCALAR"},{"bufferView":16,"componentType":5126,"count":1,"max":[0.19099250435829163,-0.09854334592819214,-0.396776020526886,0.8924011588096619],"min":[0.19099250435829163,-0.09854334592819214,-0.396776020526886,0.8924011588096619],"type":"VEC4"},{"bufferView":17,"componentType":5126,"count":1,"max":[0],"min":[0],"type":"SCALAR"},{"bufferView":18,"componentType":5126,"count":1,"max":[-1.876203179359436,2.772073745727539,0.3653149902820587],"min":[-1.876203179359436,2.772073745727539,0.3653149902820587],"type":"VEC3"}],"materials":[{"pbrMetallicRoughness":{"metallicFactor":0,"roughnessFactor":1,"baseColorTexture":{"index":0}},"alphaMode":"MASK","alphaCutoff":0.05}],"textures":[{"sampler":0,"source":0,"name":"susanoo3sasuke.png"}],"samplers":[{"magFilter":9728,"minFilter":9728,"wrapS":33071,"wrapT":33071}],"images":[{"mimeType":"image/png","uri":"data:image/png;base64,"}],"meshes":[{"primitives":[{"mode":4,"attributes":{"POSITION":0,"NORMAL":1,"TEXCOORD_0":2,"JOINTS_0":3,"WEIGHTS_0":4},"indices":5,"material":0}]}],"skins":[{"inverseBindMatrices":6,"joints":[26,16,7,6,5,0,1,2,3,4,15,14,13,8,9,10,11,12,25,24,23,22,17,18,19,20,21],"skeleton":26}],"animations":[{"name":"animation.gamabunta.new","samplers":[{"input":7,"output":8,"interpolation":"LINEAR"},{"input":9,"output":10,"interpolation":"LINEAR"},{"input":11,"output":12,"interpolation":"LINEAR"},{"input":13,"output":14,"interpolation":"LINEAR"},{"input":15,"output":16,"interpolation":"LINEAR"},{"input":17,"output":18,"interpolation":"LINEAR"}],"channels":[{"sampler":0,"target":{"node":26,"path":"rotation"}},{"sampler":1,"target":{"node":26,"path":"translation"}},{"sampler":2,"target":{"node":16,"path":"rotation"}},{"sampler":3,"target":{"node":16,"path":"translation"}},{"sampler":4,"target":{"node":25,"path":"rotation"}},{"sampler":5,"target":{"node":25,"path":"translation"}}]}]}