{"asset":{"version":"2.0","generator":"Blockbench 5.1.3 glTF exporter"},"scenes":[{"nodes":[12],"name":"blockbench_export"}],"scene":0,"nodes":[{"translation":[0,-0.4375,0],"name":"rightcanela"},{"translation":[0.11875,1.125,0],"name":"RightLeg","children":[0]},{"translation":[0,-0.4375,0],"name":"leftcanela"},{"translation":[-0.11875,1.125,0],"name":"LeftLeg","children":[2]},{"translation":[0,0.0625,-0.125],"name":"Head"},{"translation":[0.125,-0.5,0],"name":"RightForearm"},{"translation":[0.25,-0.1875,0],"name":"RightArm","children":[5]},{"translation":[-0.125,-0.5,0],"name":"LeftForearm"},{"translation":[-0.25,-0.1875,0],"name":"LeftArm","children":[7]},{"translation":[0,0.6875,0],"name":"Body","children":[4,6,8]},{"translation":[0,1.125,0],"name":"Waist","children":[9]},{"name":"Root","children":[1,3,10]},{"name":"Root","mesh":0,"children":[11],"skin":0}],"bufferViews":[{"buffer":0,"byteOffset":0,"byteLength":8928,"target":34962,"byteStride":12},{"buffer":0,"byteOffset":8928,"byteLength":8928,"target":34962,"byteStride":12},{"buffer":0,"byteOffset":17856,"byteLength":5952,"target":34962,"byteStride":8},{"buffer":0,"byteOffset":23808,"byteLength":5952,"target":34962,"byteStride":8},{"buffer":0,"byteOffset":29760,"byteLength":11904,"target":34962,"byteStride":16},{"buffer":0,"byteOffset":41664,"byteLength":2232,"target":34963},{"buffer":0,"byteOffset":43896,"byteLength":768},{"buffer":0,"byteOffset":44664,"byteLength":4},{"buffer":0,"byteOffset":44668,"byteLength":16},{"buffer":0,"byteOffset":44684,"byteLength":3760},{"buffer":0,"byteOffset":48444,"byteLength":15040},{"buffer":0,"byteOffset":63484,"byteLength":3760},{"buffer":0,"byteOffset":67244,"byteLength":15040},{"buffer":0,"byteOffset":82284,"byteLength":3760},{"buffer":0,"byteOffset":86044,"byteLength":11280},{"buffer":0,"byteOffset":97324,"byteLength":3760},{"buffer":0,"byteOffset":101084,"byteLength":15040},{"buffer":0,"byteOffset":116124,"byteLength":3760},{"buffer":0,"byteOffset":119884,"byteLength":11280},{"buffer":0,"byteOffset":131164,"byteLength":3760},{"buffer":0,"byteOffset":134924,"byteLength":15040},{"buffer":0,"byteOffset":149964,"byteLength":3760},{"buffer":0,"byteOffset":153724,"byteLength":11280},{"buffer":0,"byteOffset":165004,"byteLength":3760},{"buffer":0,"byteOffset":168764,"byteLength":15040},{"buffer":0,"byteOffset":183804,"byteLength":3760},{"buffer":0,"byteOffset":187564,"byteLength":11280},{"buffer":0,"byteOffset":198844,"byteLength":3760},{"buffer":0,"byteOffset":202604,"byteLength":15040},{"buffer":0,"byteOffset":217644,"byteLength":3760},{"buffer":0,"byteOffset":221404,"byteLength":11280}],"buffers":[{"byteLength":232684,"uri":"data:application/octet-stream;base64,"}],"accessors":[{"bufferView":0,"componentType":5126,"count":744,"max":[0.5,2.6493208408355713,0.609375],"min":[-0.5,0,-1.421875],"type":"VEC3"},{"bufferView":1,"componentType":5126,"count":744,"max":[1,1,1],"min":[-1,-1,-1],"type":"VEC3"},{"bufferView":2,"componentType":5126,"count":744,"max":[0.6483154296875,0.6092529296875],"min":[0.0001220703125,0.00012208521366119385],"type":"VEC2"},{"bufferView":3,"componentType":5123,"count":744,"max":[0,11,0,0],"min":[0,1,0,0],"type":"VEC4"},{"bufferView":4,"componentType":5126,"count":744,"max":[0,1,0,0],"min":[0,1,0,0],"type":"VEC4"},{"bufferView":5,"componentType":5123,"count":1116,"max":[743],"min":[0],"type":"SCALAR"},{"bufferView":6,"componentType":5126,"count":12,"max":[1,0,0,0,0,1,0,0,0,0,1,0,0.375,0,0.125,1],"min":[1,0,0,0,0,1,0,0,0,0,1,0,-0.375,-1.875,0,1],"type":"MAT4"},{"bufferView":7,"componentType":5126,"count":1,"max":[0],"min":[0],"type":"SCALAR"},{"bufferView":8,"componentType":5126,"count":1,"max":[0.02181488461792469,0,0,0.9997619986534119],"min":[0.02181488461792469,0,0,0.9997619986534119],"type":"VEC4"},{"bufferView":9,"componentType":5126,"count":940,"max":[57.16666793823242],"min":[0],"type":"SCALAR"},{"bufferView":10,"componentType":5126,"count":940,"max":[-0.0391399972140789,0.008912126533687115,0.02615204267203808,0.9991893172264099],"min":[-0.07420355081558228,-0.008915557526051998,-0.026157669723033905,0.9969095587730408],"type":"VEC4"},{"bufferView":11,"componentType":5126,"count":940,"max":[57.16666793823242],"min":[0],"type":"SCALAR"},{"bufferView":12,"componentType":5126,"count":940,"max":[-0.013162022456526756,-0.1313004046678543,0.06112352013587952,0.9904245734214783],"min":[-0.016030140221118927,-0.13161885738372803,0.03952692821621895,0.9893265962600708],"type":"VEC4"},{"bufferView":13,"componentType":5126,"count":940,"max":[57.16666793823242],"min":[0],"type":"SCALAR"},{"bufferView":14,"componentType":5126,"count":940,"max":[0.25,-0.24062499403953552,0],"min":[0.25,-0.25312501192092896,0],"type":"VEC3"},{"bufferView":15,"componentType":5126,"count":940,"max":[57.16666793823242],"min":[0],"type":"SCALAR"},{"bufferView":16,"componentType":5126,"count":940,"max":[-0.013162022456526756,0.13161885738372803,-0.03952692821621895,0.9904245734214783],"min":[-0.016030140221118927,0.1313004046678543,-0.06112352013587952,0.9893265962600708],"type":"VEC4"},{"bufferView":17,"componentType":5126,"count":940,"max":[57.16666793823242],"min":[0],"type":"SCALAR"},{"bufferView":18,"componentType":5126,"count":940,"max":[-0.25,-0.24062499403953552,0],"min":[-0.25,-0.25312501192092896,0],"type":"VEC3"},{"bufferView":19,"componentType":5126,"count":940,"max":[57.16666793823242],"min":[0],"type":"SCALAR"},{"bufferView":20,"componentType":5126,"count":940,"max":[-0.008164605125784874,-0.026179803535342216,0.03888555243611336,0.9994579553604126],"min":[-0.008714783005416393,-0.026356570422649384,0.01795850321650505,0.998862624168396],"type":"VEC4"},{"bufferView":21,"componentType":5126,"count":940,"max":[57.16666793823242],"min":[0],"type":"SCALAR"},{"bufferView":22,"componentType":5126,"count":940,"max":[0.1593749225139618,1.125,-0.04062499850988388],"min":[0.12812504172325134,1.125,-0.04062499850988388],"type":"VEC3"},{"bufferView":23,"componentType":5126,"count":940,"max":[57.16666793823242],"min":[0],"type":"SCALAR"},{"bufferView":24,"componentType":5126,"count":940,"max":[-0.06660668551921844,0.15320642292499542,-0.042988695204257965,0.9850093126296997],"min":[-0.06980057805776596,0.15177792310714722,-0.06360766291618347,0.9838929772377014],"type":"VEC4"},{"bufferView":25,"componentType":5126,"count":940,"max":[57.16666793823242],"min":[0],"type":"SCALAR"},{"bufferView":26,"componentType":5126,"count":940,"max":[-0.13125008344650269,1.125,-0.015625],"min":[-0.16249996423721313,1.125,-0.015625],"type":"VEC3"},{"bufferView":27,"componentType":5126,"count":940,"max":[57.16666793823242],"min":[0],"type":"SCALAR"},{"bufferView":28,"componentType":5126,"count":940,"max":[0,0,0.00872652605175972,1],"min":[0,0,-0.008726535364985466,0.9999619126319885],"type":"VEC4"},{"bufferView":29,"componentType":5126,"count":940,"max":[57.16666793823242],"min":[0],"type":"SCALAR"},{"bufferView":30,"componentType":5126,"count":940,"max":[0.015624916180968285,1.125,0],"min":[-0.015624962747097015,1.1062500476837158,0],"type":"VEC3"}],"materials":[{"pbrMetallicRoughness":{"metallicFactor":0,"roughnessFactor":1,"baseColorTexture":{"index":0}},"alphaMode":"MASK","alphaCutoff":0.05,"doubleSided":true}],"textures":[{"sampler":0,"source":0,"name":"texture"}],"samplers":[{"magFilter":9728,"minFilter":9728,"wrapS":33071,"wrapT":33071}],"images":[{"mimeType":"image/png","uri":"data:image/png;base64,"}],"meshes":[{"primitives":[{"mode":4,"attributes":{"POSITION":0,"NORMAL":1,"TEXCOORD_0":2,"JOINTS_0":3,"WEIGHTS_0":4},"indices":5,"material":0}]}],"skins":[{"inverseBindMatrices":6,"joints":[11,1,0,3,2,10,9,4,6,5,8,7],"skeleton":11}],"animations":[{"name":"animation.model.new","samplers":[{"input":7,"output":8,"interpolation":"LINEAR"},{"input":9,"output":10,"interpolation":"LINEAR"},{"input":11,"output":12,"interpolation":"LINEAR"},{"input":13,"output":14,"interpolation":"LINEAR"},{"input":15,"output":16,"interpolation":"LINEAR"},{"input":17,"output":18,"interpolation":"LINEAR"},{"input":19,"output":20,"interpolation":"LINEAR"},{"input":21,"output":22,"interpolation":"LINEAR"},{"input":23,"output":24,"interpolation":"LINEAR"},{"input":25,"output":26,"interpolation":"LINEAR"},{"input":27,"output":28,"interpolation":"LINEAR"},{"input":29,"output":30,"interpolation":"LINEAR"}],"channels":[{"sampler":0,"target":{"node":9,"path":"rotation"}},{"sampler":1,"target":{"node":4,"path":"rotation"}},{"sampler":2,"target":{"node":6,"path":"rotation"}},{"sampler":3,"target":{"node":6,"path":"translation"}},{"sampler":4,"target":{"node":8,"path":"rotation"}},{"sampler":5,"target":{"node":8,"path":"translation"}},{"sampler":6,"target":{"node":1,"path":"rotation"}},{"sampler":7,"target":{"node":1,"path":"translation"}},{"sampler":8,"target":{"node":3,"path":"rotation"}},{"sampler":9,"target":{"node":3,"path":"translation"}},{"sampler":10,"target":{"node":10,"path":"rotation"}},{"sampler":11,"target":{"node":10,"path":"translation"}}]}]}