{"asset":{"version":"2.0","generator":"Blockbench 5.1.3 glTF exporter"},"scenes":[{"nodes":[17],"name":"blockbench_export"}],"scene":0,"nodes":[{"translation":[0,-0.9375,-0.15624999999999997],"name":"RightFoot"},{"translation":[0,-0.703125,0],"name":"RightCalf","children":[0]},{"translation":[0.2265625,1.796875,0],"name":"RightLeg","children":[1]},{"translation":[0,-0.9375,-0.15624999999999997],"name":"LeftFoot"},{"translation":[0,-0.703125,0],"name":"LeftCalf","children":[3]},{"translation":[-0.2265625,1.796875,0],"name":"LeftLeg","children":[4]},{"translation":[0,-0.8593750000000002,0.1875],"name":"RightHand"},{"translation":[0.078125,-0.7675718749999998,-0.021313749999999992],"name":"RightForearm","children":[6]},{"rotation":[0,0,0.7071067811865475,0.7071067811865476],"translation":[0.46875,-0.390625,-0.16874999999999998],"name":"RightArm","children":[7]},{"translation":[0,-0.8593750000000002,0.1875],"name":"LeftHand"},{"translation":[-0.078125,-0.7675718749999998,-0.021313749999999992],"name":"LeftForearm","children":[9]},{"rotation":[0,0,-0.7071067811865475,0.7071067811865476],"translation":[-0.46875,-0.390625,-0.16874999999999998],"name":"LeftArm","children":[10]},{"translation":[0,0.03125,-0.3125],"name":"Head"},{"translation":[0,0.78125,0.15624999999999997],"name":"Body","children":[8,11,12]},{"rotation":[0.06540312923014306,0,0,0.9978589232386035],"translation":[0,1.09375,0],"name":"Breast","children":[13]},{"translation":[0,1.71875,-0.15624999999999997],"name":"Waist","children":[14]},{"name":"Root","children":[2,5,15]},{"translation":[0,0,0.303214375],"name":"Root","mesh":0,"children":[16],"skin":0}],"bufferViews":[{"buffer":0,"byteOffset":0,"byteLength":8064,"target":34962,"byteStride":12},{"buffer":0,"byteOffset":8064,"byteLength":8064,"target":34962,"byteStride":12},{"buffer":0,"byteOffset":16128,"byteLength":5376,"target":34962,"byteStride":8},{"buffer":0,"byteOffset":21504,"byteLength":5376,"target":34962,"byteStride":8},{"buffer":0,"byteOffset":26880,"byteLength":10752,"target":34962,"byteStride":16},{"buffer":0,"byteOffset":37632,"byteLength":2016,"target":34963},{"buffer":0,"byteOffset":39648,"byteLength":1088},{"buffer":0,"byteOffset":40736,"byteLength":4},{"buffer":0,"byteOffset":40740,"byteLength":16},{"buffer":0,"byteOffset":40756,"byteLength":4},{"buffer":0,"byteOffset":40760,"byteLength":12},{"buffer":0,"byteOffset":40772,"byteLength":4},{"buffer":0,"byteOffset":40776,"byteLength":16},{"buffer":0,"byteOffset":40792,"byteLength":4},{"buffer":0,"byteOffset":40796,"byteLength":12},{"buffer":0,"byteOffset":40808,"byteLength":4},{"buffer":0,"byteOffset":40812,"byteLength":16},{"buffer":0,"byteOffset":40828,"byteLength":4},{"buffer":0,"byteOffset":40832,"byteLength":12},{"buffer":0,"byteOffset":40844,"byteLength":4},{"buffer":0,"byteOffset":40848,"byteLength":16},{"buffer":0,"byteOffset":40864,"byteLength":4},{"buffer":0,"byteOffset":40868,"byteLength":16},{"buffer":0,"byteOffset":40884,"byteLength":4},{"buffer":0,"byteOffset":40888,"byteLength":12},{"buffer":0,"byteOffset":40900,"byteLength":4},{"buffer":0,"byteOffset":40904,"byteLength":16},{"buffer":0,"byteOffset":40920,"byteLength":4},{"buffer":0,"byteOffset":40924,"byteLength":16},{"buffer":0,"byteOffset":40940,"byteLength":4},{"buffer":0,"byteOffset":40944,"byteLength":12},{"buffer":0,"byteOffset":40956,"byteLength":4},{"buffer":0,"byteOffset":40960,"byteLength":16},{"buffer":0,"byteOffset":40976,"byteLength":4},{"buffer":0,"byteOffset":40980,"byteLength":16}],"buffers":[{"byteLength":40996,"uri":"data:application/octet-stream;base64,"}],"accessors":[{"bufferView":0,"componentType":5126,"count":672,"max":[2.4375,4.473369598388672,0.40784212946891785],"min":[-2.4375,-0.0238979272544384,-0.6542031168937683],"type":"VEC3"},{"bufferView":1,"componentType":5126,"count":672,"max":[1,1,1],"min":[-1,-1,-1],"type":"VEC3"},{"bufferView":2,"componentType":5126,"count":672,"max":[0.9373779296875,0.8123779296875],"min":[0.0001220703125,0.0001220703125],"type":"VEC2"},{"bufferView":3,"componentType":5123,"count":672,"max":[0,16,0,0],"min":[0,1,0,0],"type":"VEC4"},{"bufferView":4,"componentType":5126,"count":672,"max":[0,1,0,0],"min":[0,1,0,0],"type":"VEC4"},{"bufferView":5,"componentType":5123,"count":1008,"max":[671],"min":[0],"type":"SCALAR"},{"bufferView":6,"componentType":5126,"count":17,"max":[1,1,0,0,0.9914448857307434,1,0,0,0.13052618503570557,0.13052618503570557,1,0,3.2367939949035645,2.0956969261169434,0.6782681941986084,1],"min":[2.220446049250313e-16,-1,0,0,-0.9914448857307434,2.2014498795702573e-16,-0.13052618503570557,0,-0.13052618503570557,0,0.9914448857307434,0,-3.2367939949035645,-3.5805439949035645,0,1],"type":"MAT4"},{"bufferView":7,"componentType":5126,"count":1,"max":[0],"min":[0],"type":"SCALAR"},{"bufferView":8,"componentType":5126,"count":1,"max":[-0.008440157398581505,-0.02626962773501873,0.028423570096492767,0.9992150664329529],"min":[-0.008440157398581505,-0.02626962773501873,0.028423570096492767,0.9992150664329529],"type":"VEC4"},{"bufferView":9,"componentType":5126,"count":1,"max":[0],"min":[0],"type":"SCALAR"},{"bufferView":10,"componentType":5126,"count":1,"max":[0.2515625059604645,1.796875,-0.04062499850988388],"min":[0.2515625059604645,1.796875,-0.04062499850988388],"type":"VEC3"},{"bufferView":11,"componentType":5126,"count":1,"max":[0],"min":[0],"type":"SCALAR"},{"bufferView":12,"componentType":5126,"count":1,"max":[-0.06820736825466156,0.15250052511692047,-0.053301118314266205,0.9845051169395447],"min":[-0.06820736825466156,0.15250052511692047,-0.053301118314266205,0.9845051169395447],"type":"VEC4"},{"bufferView":13,"componentType":5126,"count":1,"max":[0],"min":[0],"type":"SCALAR"},{"bufferView":14,"componentType":5126,"count":1,"max":[-0.25468748807907104,1.796875,-0.015625],"min":[-0.25468748807907104,1.796875,-0.015625],"type":"VEC3"},{"bufferView":15,"componentType":5126,"count":1,"max":[0],"min":[0],"type":"SCALAR"},{"bufferView":16,"componentType":5126,"count":1,"max":[0,0,-0.008726535364985466,0.9999619126319885],"min":[0,0,-0.008726535364985466,0.9999619126319885],"type":"VEC4"},{"bufferView":17,"componentType":5126,"count":1,"max":[0],"min":[0],"type":"SCALAR"},{"bufferView":18,"componentType":5126,"count":1,"max":[0,1.71875,-0.15625],"min":[0,1.71875,-0.15625],"type":"VEC3"},{"bufferView":19,"componentType":5126,"count":1,"max":[0],"min":[0],"type":"SCALAR"},{"bufferView":20,"componentType":5126,"count":1,"max":[0.02181488461792469,0,0,0.9997619986534119],"min":[0.02181488461792469,0,0,0.9997619986534119],"type":"VEC4"},{"bufferView":21,"componentType":5126,"count":1,"max":[0],"min":[0],"type":"SCALAR"},{"bufferView":22,"componentType":5126,"count":1,"max":[-0.021270355209708214,-0.052491992712020874,0.1515793800354004,0.9868211150169373],"min":[-0.021270355209708214,-0.052491992712020874,0.1515793800354004,0.9868211150169373],"type":"VEC4"},{"bufferView":23,"componentType":5126,"count":1,"max":[0],"min":[0],"type":"SCALAR"},{"bufferView":24,"componentType":5126,"count":1,"max":[0.46875,-0.4437499940395355,-0.16875000298023224],"min":[0.46875,-0.4437499940395355,-0.16875000298023224],"type":"VEC3"},{"bufferView":25,"componentType":5126,"count":1,"max":[0],"min":[0],"type":"SCALAR"},{"bufferView":26,"componentType":5126,"count":1,"max":[0,0,0.04361938685178757,0.9990482330322266],"min":[0,0,0.04361938685178757,0.9990482330322266],"type":"VEC4"},{"bufferView":27,"componentType":5126,"count":1,"max":[0],"min":[0],"type":"SCALAR"},{"bufferView":28,"componentType":5126,"count":1,"max":[-0.04276159405708313,0.04929441958665848,-0.12982602417469025,0.989387035369873],"min":[-0.04276159405708313,0.04929441958665848,-0.12982602417469025,0.989387035369873],"type":"VEC4"},{"bufferView":29,"componentType":5126,"count":1,"max":[0],"min":[0],"type":"SCALAR"},{"bufferView":30,"componentType":5126,"count":1,"max":[-0.46875,-0.4437499940395355,-0.16875000298023224],"min":[-0.46875,-0.4437499940395355,-0.16875000298023224],"type":"VEC3"},{"bufferView":31,"componentType":5126,"count":1,"max":[0],"min":[0],"type":"SCALAR"},{"bufferView":32,"componentType":5126,"count":1,"max":[0,0,-0.08715574443340302,0.9961947202682495],"min":[0,0,-0.08715574443340302,0.9961947202682495],"type":"VEC4"},{"bufferView":33,"componentType":5126,"count":1,"max":[0],"min":[0],"type":"SCALAR"},{"bufferView":34,"componentType":5126,"count":1,"max":[-0.056796036660671234,-0.005110234022140503,-0.01883060112595558,0.9981951117515564],"min":[-0.056796036660671234,-0.005110234022140503,-0.01883060112595558,0.9981951117515564],"type":"VEC4"}],"materials":[{"pbrMetallicRoughness":{"metallicFactor":0,"roughnessFactor":1,"baseColorTexture":{"index":0}},"alphaMode":"MASK","alphaCutoff":0.05,"doubleSided":true}],"textures":[{"sampler":0,"source":0,"name":"titan.anormal.png"}],"samplers":[{"magFilter":9728,"minFilter":9728,"wrapS":33071,"wrapT":33071}],"images":[{"mimeType":"image/png","uri":"data:image/png;base64,"}],"meshes":[{"primitives":[{"mode":4,"attributes":{"POSITION":0,"NORMAL":1,"TEXCOORD_0":2,"JOINTS_0":3,"WEIGHTS_0":4},"indices":5,"material":0}]}],"skins":[{"inverseBindMatrices":6,"joints":[16,2,1,0,5,4,3,15,14,13,8,7,6,11,10,9,12],"skeleton":16}],"animations":[{"name":"animation.titan.anormal.new","samplers":[{"input":7,"output":8,"interpolation":"LINEAR"},{"input":9,"output":10,"interpolation":"LINEAR"},{"input":11,"output":12,"interpolation":"LINEAR"},{"input":13,"output":14,"interpolation":"LINEAR"},{"input":15,"output":16,"interpolation":"LINEAR"},{"input":17,"output":18,"interpolation":"LINEAR"},{"input":19,"output":20,"interpolation":"LINEAR"},{"input":21,"output":22,"interpolation":"LINEAR"},{"input":23,"output":24,"interpolation":"LINEAR"},{"input":25,"output":26,"interpolation":"LINEAR"},{"input":27,"output":28,"interpolation":"LINEAR"},{"input":29,"output":30,"interpolation":"LINEAR"},{"input":31,"output":32,"interpolation":"LINEAR"},{"input":33,"output":34,"interpolation":"LINEAR"}],"channels":[{"sampler":0,"target":{"node":2,"path":"rotation"}},{"sampler":1,"target":{"node":2,"path":"translation"}},{"sampler":2,"target":{"node":5,"path":"rotation"}},{"sampler":3,"target":{"node":5,"path":"translation"}},{"sampler":4,"target":{"node":15,"path":"rotation"}},{"sampler":5,"target":{"node":15,"path":"translation"}},{"sampler":6,"target":{"node":13,"path":"rotation"}},{"sampler":7,"target":{"node":8,"path":"rotation"}},{"sampler":8,"target":{"node":8,"path":"translation"}},{"sampler":9,"target":{"node":7,"path":"rotation"}},{"sampler":10,"target":{"node":11,"path":"rotation"}},{"sampler":11,"target":{"node":11,"path":"translation"}},{"sampler":12,"target":{"node":10,"path":"rotation"}},{"sampler":13,"target":{"node":12,"path":"rotation"}}]}]}